<?xml version="1.0" encoding="utf-8" standalone="no"?>
<!DOCTYPE svg PUBLIC "-//W3C//DTD SVG 1.1//EN"
  "http://www.w3.org/Graphics/SVG/1.1/DTD/svg11.dtd">
<svg xmlns:xlink="http://www.w3.org/1999/xlink" width="1008pt" height="432pt" viewBox="0 0 1008 432" xmlns="http://www.w3.org/2000/svg" version="1.1">
 <metadata>
  <rdf:RDF xmlns:dc="http://purl.org/dc/elements/1.1/" xmlns:cc="http://creativecommons.org/ns#" xmlns:rdf="http://www.w3.org/1999/02/22-rdf-syntax-ns#">
   <cc:Work>
    <dc:type rdf:resource="http://purl.org/dc/dcmitype/StillImage"/>
    <dc:date>2025-06-08T12:28:31.532856</dc:date>
    <dc:format>image/svg+xml</dc:format>
    <dc:creator>
     <cc:Agent>
      <dc:title>Matplotlib v3.10.1, https://matplotlib.org/</dc:title>
     </cc:Agent>
    </dc:creator>
   </cc:Work>
  </rdf:RDF>
 </metadata>
 <defs>
  <style type="text/css">*{stroke-linejoin: round; stroke-linecap: butt}</style>
 </defs>
 <g id="figure_1">
  <g id="patch_1">
   <path d="M 0 432 
L 1008 432 
L 1008 0 
L 0 0 
z
" style="fill: #ffffff"/>
  </g>
  <g id="axes_1">
   <g id="patch_2">
    <path d="M 126 384.48 
L 355.764706 384.48 
L 355.764706 51.84 
L 126 51.84 
z
" style="fill: #ffffff"/>
   </g>
   <g id="matplotlib.axis_1">
    <g id="xtick_1">
     <g id="line2d_1">
      <defs>
       <path id="m186b393b78" d="M 0 0 
L 0 3.5 
" style="stroke: #000000; stroke-width: 0.8"/>
      </defs>
      <g>
       <use xlink:href="#m186b393b78" x="126" y="384.48" style="stroke: #000000; stroke-width: 0.8"/>
      </g>
     </g>
     <g id="text_1">
      <!-- −400 -->
      <g transform="translate(112.266406 399.078438) scale(0.1 -0.1)">
       <defs>
        <path id="DejaVuSans-2212" d="M 678 2272 
L 4684 2272 
L 4684 1741 
L 678 1741 
L 678 2272 
z
" transform="scale(0.015625)"/>
        <path id="DejaVuSans-34" d="M 2419 4116 
L 825 1625 
L 2419 1625 
L 2419 4116 
z
M 2253 4666 
L 3047 4666 
L 3047 1625 
L 3713 1625 
L 3713 1100 
L 3047 1100 
L 3047 0 
L 2419 0 
L 2419 1100 
L 313 1100 
L 313 1709 
L 2253 4666 
z
" transform="scale(0.015625)"/>
        <path id="DejaVuSans-30" d="M 2034 4250 
Q 1547 4250 1301 3770 
Q 1056 3291 1056 2328 
Q 1056 1369 1301 889 
Q 1547 409 2034 409 
Q 2525 409 2770 889 
Q 3016 1369 3016 2328 
Q 3016 3291 2770 3770 
Q 2525 4250 2034 4250 
z
M 2034 4750 
Q 2819 4750 3233 4129 
Q 3647 3509 3647 2328 
Q 3647 1150 3233 529 
Q 2819 -91 2034 -91 
Q 1250 -91 836 529 
Q 422 1150 422 2328 
Q 422 3509 836 4129 
Q 1250 4750 2034 4750 
z
" transform="scale(0.015625)"/>
       </defs>
       <use xlink:href="#DejaVuSans-2212"/>
       <use xlink:href="#DejaVuSans-34" transform="translate(83.789062 0)"/>
       <use xlink:href="#DejaVuSans-30" transform="translate(147.412109 0)"/>
       <use xlink:href="#DejaVuSans-30" transform="translate(211.035156 0)"/>
      </g>
     </g>
    </g>
    <g id="xtick_2">
     <g id="line2d_2">
      <g>
       <use xlink:href="#m186b393b78" x="167.775401" y="384.48" style="stroke: #000000; stroke-width: 0.8"/>
      </g>
     </g>
     <g id="text_2">
      <!-- −200 -->
      <g transform="translate(154.041807 399.078438) scale(0.1 -0.1)">
       <defs>
        <path id="DejaVuSans-32" d="M 1228 531 
L 3431 531 
L 3431 0 
L 469 0 
L 469 531 
Q 828 903 1448 1529 
Q 2069 2156 2228 2338 
Q 2531 2678 2651 2914 
Q 2772 3150 2772 3378 
Q 2772 3750 2511 3984 
Q 2250 4219 1831 4219 
Q 1534 4219 1204 4116 
Q 875 4013 500 3803 
L 500 4441 
Q 881 4594 1212 4672 
Q 1544 4750 1819 4750 
Q 2544 4750 2975 4387 
Q 3406 4025 3406 3419 
Q 3406 3131 3298 2873 
Q 3191 2616 2906 2266 
Q 2828 2175 2409 1742 
Q 1991 1309 1228 531 
z
" transform="scale(0.015625)"/>
       </defs>
       <use xlink:href="#DejaVuSans-2212"/>
       <use xlink:href="#DejaVuSans-32" transform="translate(83.789062 0)"/>
       <use xlink:href="#DejaVuSans-30" transform="translate(147.412109 0)"/>
       <use xlink:href="#DejaVuSans-30" transform="translate(211.035156 0)"/>
      </g>
     </g>
    </g>
    <g id="xtick_3">
     <g id="line2d_3">
      <g>
       <use xlink:href="#m186b393b78" x="209.550802" y="384.48" style="stroke: #000000; stroke-width: 0.8"/>
      </g>
     </g>
     <g id="text_3">
      <!-- 0 -->
      <g transform="translate(206.369552 399.078438) scale(0.1 -0.1)">
       <use xlink:href="#DejaVuSans-30"/>
      </g>
     </g>
    </g>
    <g id="xtick_4">
     <g id="line2d_4">
      <g>
       <use xlink:href="#m186b393b78" x="251.326203" y="384.48" style="stroke: #000000; stroke-width: 0.8"/>
      </g>
     </g>
     <g id="text_4">
      <!-- 200 -->
      <g transform="translate(241.782453 399.078438) scale(0.1 -0.1)">
       <use xlink:href="#DejaVuSans-32"/>
       <use xlink:href="#DejaVuSans-30" transform="translate(63.623047 0)"/>
       <use xlink:href="#DejaVuSans-30" transform="translate(127.246094 0)"/>
      </g>
     </g>
    </g>
    <g id="xtick_5">
     <g id="line2d_5">
      <g>
       <use xlink:href="#m186b393b78" x="293.101604" y="384.48" style="stroke: #000000; stroke-width: 0.8"/>
      </g>
     </g>
     <g id="text_5">
      <!-- 400 -->
      <g transform="translate(283.557854 399.078438) scale(0.1 -0.1)">
       <use xlink:href="#DejaVuSans-34"/>
       <use xlink:href="#DejaVuSans-30" transform="translate(63.623047 0)"/>
       <use xlink:href="#DejaVuSans-30" transform="translate(127.246094 0)"/>
      </g>
     </g>
    </g>
    <g id="xtick_6">
     <g id="line2d_6">
      <g>
       <use xlink:href="#m186b393b78" x="334.877005" y="384.48" style="stroke: #000000; stroke-width: 0.8"/>
      </g>
     </g>
     <g id="text_6">
      <!-- 600 -->
      <g transform="translate(325.333255 399.078438) scale(0.1 -0.1)">
       <defs>
        <path id="DejaVuSans-36" d="M 2113 2584 
Q 1688 2584 1439 2293 
Q 1191 2003 1191 1497 
Q 1191 994 1439 701 
Q 1688 409 2113 409 
Q 2538 409 2786 701 
Q 3034 994 3034 1497 
Q 3034 2003 2786 2293 
Q 2538 2584 2113 2584 
z
M 3366 4563 
L 3366 3988 
Q 3128 4100 2886 4159 
Q 2644 4219 2406 4219 
Q 1781 4219 1451 3797 
Q 1122 3375 1075 2522 
Q 1259 2794 1537 2939 
Q 1816 3084 2150 3084 
Q 2853 3084 3261 2657 
Q 3669 2231 3669 1497 
Q 3669 778 3244 343 
Q 2819 -91 2113 -91 
Q 1303 -91 875 529 
Q 447 1150 447 2328 
Q 447 3434 972 4092 
Q 1497 4750 2381 4750 
Q 2619 4750 2861 4703 
Q 3103 4656 3366 4563 
z
" transform="scale(0.015625)"/>
       </defs>
       <use xlink:href="#DejaVuSans-36"/>
       <use xlink:href="#DejaVuSans-30" transform="translate(63.623047 0)"/>
       <use xlink:href="#DejaVuSans-30" transform="translate(127.246094 0)"/>
      </g>
     </g>
    </g>
   </g>
   <g id="matplotlib.axis_2">
    <g id="ytick_1">
     <g id="line2d_7">
      <defs>
       <path id="m0275d32bdd" d="M 0 0 
L -3.5 0 
" style="stroke: #000000; stroke-width: 0.8"/>
      </defs>
      <g>
       <use xlink:href="#m0275d32bdd" x="126" y="364.373904" style="stroke: #000000; stroke-width: 0.8"/>
      </g>
     </g>
     <g id="text_7">
      <!-- 0 -->
      <g transform="translate(112.6375 368.173122) scale(0.1 -0.1)">
       <use xlink:href="#DejaVuSans-30"/>
      </g>
     </g>
    </g>
    <g id="ytick_2">
     <g id="line2d_8">
      <g>
       <use xlink:href="#m0275d32bdd" x="126" y="322.598503" style="stroke: #000000; stroke-width: 0.8"/>
      </g>
     </g>
     <g id="text_8">
      <!-- 200 -->
      <g transform="translate(99.9125 326.397721) scale(0.1 -0.1)">
       <use xlink:href="#DejaVuSans-32"/>
       <use xlink:href="#DejaVuSans-30" transform="translate(63.623047 0)"/>
       <use xlink:href="#DejaVuSans-30" transform="translate(127.246094 0)"/>
      </g>
     </g>
    </g>
    <g id="ytick_3">
     <g id="line2d_9">
      <g>
       <use xlink:href="#m0275d32bdd" x="126" y="280.823102" style="stroke: #000000; stroke-width: 0.8"/>
      </g>
     </g>
     <g id="text_9">
      <!-- 400 -->
      <g transform="translate(99.9125 284.62232) scale(0.1 -0.1)">
       <use xlink:href="#DejaVuSans-34"/>
       <use xlink:href="#DejaVuSans-30" transform="translate(63.623047 0)"/>
       <use xlink:href="#DejaVuSans-30" transform="translate(127.246094 0)"/>
      </g>
     </g>
    </g>
    <g id="ytick_4">
     <g id="line2d_10">
      <g>
       <use xlink:href="#m0275d32bdd" x="126" y="239.047701" style="stroke: #000000; stroke-width: 0.8"/>
      </g>
     </g>
     <g id="text_10">
      <!-- 600 -->
      <g transform="translate(99.9125 242.846919) scale(0.1 -0.1)">
       <use xlink:href="#DejaVuSans-36"/>
       <use xlink:href="#DejaVuSans-30" transform="translate(63.623047 0)"/>
       <use xlink:href="#DejaVuSans-30" transform="translate(127.246094 0)"/>
      </g>
     </g>
    </g>
    <g id="ytick_5">
     <g id="line2d_11">
      <g>
       <use xlink:href="#m0275d32bdd" x="126" y="197.272299" style="stroke: #000000; stroke-width: 0.8"/>
      </g>
     </g>
     <g id="text_11">
      <!-- 800 -->
      <g transform="translate(99.9125 201.071518) scale(0.1 -0.1)">
       <defs>
        <path id="DejaVuSans-38" d="M 2034 2216 
Q 1584 2216 1326 1975 
Q 1069 1734 1069 1313 
Q 1069 891 1326 650 
Q 1584 409 2034 409 
Q 2484 409 2743 651 
Q 3003 894 3003 1313 
Q 3003 1734 2745 1975 
Q 2488 2216 2034 2216 
z
M 1403 2484 
Q 997 2584 770 2862 
Q 544 3141 544 3541 
Q 544 4100 942 4425 
Q 1341 4750 2034 4750 
Q 2731 4750 3128 4425 
Q 3525 4100 3525 3541 
Q 3525 3141 3298 2862 
Q 3072 2584 2669 2484 
Q 3125 2378 3379 2068 
Q 3634 1759 3634 1313 
Q 3634 634 3220 271 
Q 2806 -91 2034 -91 
Q 1263 -91 848 271 
Q 434 634 434 1313 
Q 434 1759 690 2068 
Q 947 2378 1403 2484 
z
M 1172 3481 
Q 1172 3119 1398 2916 
Q 1625 2713 2034 2713 
Q 2441 2713 2670 2916 
Q 2900 3119 2900 3481 
Q 2900 3844 2670 4047 
Q 2441 4250 2034 4250 
Q 1625 4250 1398 4047 
Q 1172 3844 1172 3481 
z
" transform="scale(0.015625)"/>
       </defs>
       <use xlink:href="#DejaVuSans-38"/>
       <use xlink:href="#DejaVuSans-30" transform="translate(63.623047 0)"/>
       <use xlink:href="#DejaVuSans-30" transform="translate(127.246094 0)"/>
      </g>
     </g>
    </g>
    <g id="ytick_6">
     <g id="line2d_12">
      <g>
       <use xlink:href="#m0275d32bdd" x="126" y="155.496898" style="stroke: #000000; stroke-width: 0.8"/>
      </g>
     </g>
     <g id="text_12">
      <!-- 1000 -->
      <g transform="translate(93.55 159.296117) scale(0.1 -0.1)">
       <defs>
        <path id="DejaVuSans-31" d="M 794 531 
L 1825 531 
L 1825 4091 
L 703 3866 
L 703 4441 
L 1819 4666 
L 2450 4666 
L 2450 531 
L 3481 531 
L 3481 0 
L 794 0 
L 794 531 
z
" transform="scale(0.015625)"/>
       </defs>
       <use xlink:href="#DejaVuSans-31"/>
       <use xlink:href="#DejaVuSans-30" transform="translate(63.623047 0)"/>
       <use xlink:href="#DejaVuSans-30" transform="translate(127.246094 0)"/>
       <use xlink:href="#DejaVuSans-30" transform="translate(190.869141 0)"/>
      </g>
     </g>
    </g>
    <g id="ytick_7">
     <g id="line2d_13">
      <g>
       <use xlink:href="#m0275d32bdd" x="126" y="113.721497" style="stroke: #000000; stroke-width: 0.8"/>
      </g>
     </g>
     <g id="text_13">
      <!-- 1200 -->
      <g transform="translate(93.55 117.520716) scale(0.1 -0.1)">
       <use xlink:href="#DejaVuSans-31"/>
       <use xlink:href="#DejaVuSans-32" transform="translate(63.623047 0)"/>
       <use xlink:href="#DejaVuSans-30" transform="translate(127.246094 0)"/>
       <use xlink:href="#DejaVuSans-30" transform="translate(190.869141 0)"/>
      </g>
     </g>
    </g>
    <g id="ytick_8">
     <g id="line2d_14">
      <g>
       <use xlink:href="#m0275d32bdd" x="126" y="71.946096" style="stroke: #000000; stroke-width: 0.8"/>
      </g>
     </g>
     <g id="text_14">
      <!-- 1400 -->
      <g transform="translate(93.55 75.745315) scale(0.1 -0.1)">
       <use xlink:href="#DejaVuSans-31"/>
       <use xlink:href="#DejaVuSans-34" transform="translate(63.623047 0)"/>
       <use xlink:href="#DejaVuSans-30" transform="translate(127.246094 0)"/>
       <use xlink:href="#DejaVuSans-30" transform="translate(190.869141 0)"/>
      </g>
     </g>
    </g>
   </g>
   <g id="line2d_15">
    <path d="M 209.571368 363.505944 
L 209.61695 359.878506 
L 209.391439 355.232081 
L 208.924949 351.447727 
L 208.212661 347.839494 
L 207.728465 345.521567 
L 207.66375 343.181756 
L 207.407057 342.3173 
L 207.007981 341.685453 
L 205.777592 340.643122 
L 203.685658 339.284706 
L 201.437229 337.904648 
L 199.856581 336.731871 
L 198.423329 335.24585 
L 197.759838 334.41248 
L 197.177502 333.483683 
L 196.252137 331.385705 
L 193.480908 323.63485 
L 192.167439 320.495718 
L 191.270697 317.90276 
L 191.38324 316.674311 
L 191.684743 316.230387 
L 191.667221 316.232608 
L 192.112743 315.998434 
L 192.842148 316.035983 
L 193.749135 316.476114 
L 198.408409 320.066478 
L 200.599628 321.606566 
L 202.745044 322.781927 
L 205.206928 323.698348 
L 207.962183 324.341413 
L 216.828393 325.941653 
L 219.518305 326.068125 
L 221.569694 326.58743 
L 220.52244 327.285815 
L 222.189444 327.423917 
L 223.142203 327.805792 
L 224.575443 328.037372 
L 225.321253 327.636236 
L 225.715228 326.796138 
L 225.649369 325.82365 
L 225.185254 324.009089 
L 224.118831 320.982931 
L 223.137439 318.250001 
L 220.812469 311.409709 
L 218.806772 306.140916 
L 216.656679 301.132636 
L 214.105065 295.848745 
L 212.948306 293.525205 
L 211.710628 291.481043 
L 209.873349 289.628171 
L 207.759097 288.591059 
L 205.924147 288.268609 
L 204.034878 288.201002 
L 197.718009 288.43829 
L 193.150545 288.606741 
L 190.931788 288.567308 
L 188.868841 288.356704 
L 186.543675 287.842964 
L 184.30379 286.995236 
L 181.101238 285.165172 
L 180.411405 285.324042 
L 179.8026 285.951469 
L 179.656517 286.775306 
L 180.149706 287.490172 
L 180.943723 287.742834 
L 182.391494 287.649054 
L 184.339219 287.830292 
L 190.138904 288.895859 
L 192.022013 288.988823 
L 202.000284 288.725337 
L 204.776557 288.627451 
L 206.947612 287.883582 
L 207.782962 286.374093 
L 207.708527 284.498465 
L 206.888765 282.254554 
L 204.604438 278.420461 
L 202.44763 274.75619 
L 193.34576 258.325197 
L 192.334345 256.368887 
L 191.218626 254.558361 
L 189.774925 253.43093 
L 188.291261 253.214276 
L 186.589348 253.520618 
L 177.363023 256.498301 
L 167.337383 259.314373 
L 165.786843 259.702327 
L 163.939935 260.036302 
L 161.888595 260.110723 
L 160.0129 259.86293 
L 158.604739 260.264022 
L 158.348778 260.994358 
L 158.536265 261.502221 
L 159.131894 261.872938 
L 159.773767 261.830032 
L 161.824112 260.290373 
L 163.476055 259.714649 
L 169.285294 258.222728 
L 172.413656 257.424058 
L 177.231717 256.157027 
L 183.308958 254.253319 
L 187.362165 252.902962 
L 188.963013 251.880441 
L 189.519561 250.630035 
L 189.374119 249.042945 
L 188.511614 247.044207 
L 184.839785 240.311633 
L 181.645454 234.606871 
L 180.431003 233.11578 
L 179.249055 232.932362 
L 176.892464 233.796198 
L 174.224106 234.709449 
L 170.985766 235.602135 
L 165.179122 236.990994 
L 160.742035 238.390115 
L 149.457688 242.506181 
L 147.063705 243.008561 
L 144.895758 243.839301 
L 144.260585 244.956457 
L 144.479056 245.81105 
L 144.290105 244.937091 
L 144.643707 244.281979 
L 150.170502 242.148512 
L 152.666176 241.446 
L 166.343477 238.214781 
L 178.043913 235.094451 
L 185.574088 233.297782 
L 188.746709 232.630737 
L 193.052296 230.954762 
L 194.697418 228.399155 
L 194.520705 225.267415 
L 193.246138 222.456971 
L 191.334296 219.101948 
L 189.105155 215.738511 
L 187.028946 213.072116 
L 182.618554 207.898305 
L 180.43449 205.152179 
L 178.340311 202.33002 
L 176.654921 199.571846 
L 173.63016 193.438392 
L 170.909315 187.08734 
L 168.60507 184.543806 
L 166.141025 183.693599 
L 163.127993 184.250965 
L 160.897175 185.756042 
L 152.448458 193.769759 
L 146.740343 198.635189 
L 144.367044 200.516714 
L 141.024215 202.90053 
L 137.245128 205.025341 
L 133.013889 206.719025 
L 129.54908 207.668546 
L 125.430235 208.318749 
L 120.776972 208.491789 
L 115.775022 208.115775 
L 110.58755 207.133349 
L 105.505601 205.738537 
L 100.253283 203.834485 
L 72.767343 192.265855 
L 66.975086 189.453984 
L 61.738589 186.293113 
L 56.866505 182.745365 
L 52.359292 178.659936 
L 45.857945 170.725848 
L 42.830962 163.446323 
L 42.082962 155.389872 
L 44.076944 144.96118 
L 47.703849 136.635805 
L 53.187776 129.089154 
L 60.24352 123.097326 
L 68.489916 118.028311 
L 75.092515 114.570443 
L 81.867262 111.345292 
L 88.995228 108.248395 
L 110.592019 99.231114 
L 118.186121 96.485983 
L 129.272035 93.692967 
L 142.071724 91.357634 
L 152.982105 90.08405 
L 162.899785 86.924199 
L 163.808966 82.49311 
L 161.855203 78.516466 
L 157.099793 76.451282 
L 151.603503 78.041597 
L 141.874436 84.669057 
L 131.027021 91.294272 
L 120.495388 96.58114 
L 111.487466 100.498043 
L 78.418853 113.310704 
L 53.616392 124.053311 
L 27.352531 135.474513 
L 14.476061 142.900381 
L 4.79245 151.892674 
L -1 161.223868 
M -1 203.053851 
L 3.178931 208.948134 
L 11.158533 216.82934 
L 20.130886 224.05551 
L 30.173046 230.434826 
L 38.335121 234.522755 
L 47.324316 238.146625 
L 89.567154 253.573908 
L 101.549585 257.759939 
L 118.719411 262.976605 
L 135.540971 266.080298 
L 152.947435 266.673967 
L 170.109985 264.817092 
L 187.494827 260.344263 
L 200.271169 254.964552 
L 216.505984 244.699555 
L 230.728418 232.33935 
L 251.563274 211.639108 
L 273.640888 190.071793 
L 284.559008 179.215976 
L 297.266944 166.344759 
L 311.151266 153.439682 
L 327.600311 142.913232 
L 340.176711 133.561345 
L 348.617604 119.218848 
L 356.968859 95.285552 
L 366.097692 74.88756 
L 394.056486 25.617804 
L 402.200917 10.872163 
L 408.421644 -1 
M 53.799671 433 
L 55.23844 419.186671 
L 59.488431 381.243331 
L 63.863171 343.37657 
L 70.936674 284.607933 
L 76.337541 246.374281 
L 92.692213 134.68972 
L 100.965612 79.560851 
L 108.959065 24.191412 
L 112.050194 -1 
L 112.050194 -1 
" clip-path="url(#p5f63d95646)" style="fill: none; stroke: #ff0000; stroke-width: 0.5; stroke-linecap: square"/>
   </g>
   <g id="patch_3">
    <path d="M 126 384.48 
L 126 51.84 
" style="fill: none; stroke: #000000; stroke-width: 0.8; stroke-linejoin: miter; stroke-linecap: square"/>
   </g>
   <g id="patch_4">
    <path d="M 355.764706 384.48 
L 355.764706 51.84 
" style="fill: none; stroke: #000000; stroke-width: 0.8; stroke-linejoin: miter; stroke-linecap: square"/>
   </g>
   <g id="patch_5">
    <path d="M 126 384.48 
L 355.764706 384.48 
" style="fill: none; stroke: #000000; stroke-width: 0.8; stroke-linejoin: miter; stroke-linecap: square"/>
   </g>
   <g id="patch_6">
    <path d="M 126 51.84 
L 355.764706 51.84 
" style="fill: none; stroke: #000000; stroke-width: 0.8; stroke-linejoin: miter; stroke-linecap: square"/>
   </g>
   <g id="text_15">
    <!-- MASt3R-SLAM -->
    <g transform="translate(198.960165 45.84) scale(0.12 -0.12)">
     <defs>
      <path id="DejaVuSans-4d" d="M 628 4666 
L 1569 4666 
L 2759 1491 
L 3956 4666 
L 4897 4666 
L 4897 0 
L 4281 0 
L 4281 4097 
L 3078 897 
L 2444 897 
L 1241 4097 
L 1241 0 
L 628 0 
L 628 4666 
z
" transform="scale(0.015625)"/>
      <path id="DejaVuSans-41" d="M 2188 4044 
L 1331 1722 
L 3047 1722 
L 2188 4044 
z
M 1831 4666 
L 2547 4666 
L 4325 0 
L 3669 0 
L 3244 1197 
L 1141 1197 
L 716 0 
L 50 0 
L 1831 4666 
z
" transform="scale(0.015625)"/>
      <path id="DejaVuSans-53" d="M 3425 4513 
L 3425 3897 
Q 3066 4069 2747 4153 
Q 2428 4238 2131 4238 
Q 1616 4238 1336 4038 
Q 1056 3838 1056 3469 
Q 1056 3159 1242 3001 
Q 1428 2844 1947 2747 
L 2328 2669 
Q 3034 2534 3370 2195 
Q 3706 1856 3706 1288 
Q 3706 609 3251 259 
Q 2797 -91 1919 -91 
Q 1588 -91 1214 -16 
Q 841 59 441 206 
L 441 856 
Q 825 641 1194 531 
Q 1563 422 1919 422 
Q 2459 422 2753 634 
Q 3047 847 3047 1241 
Q 3047 1584 2836 1778 
Q 2625 1972 2144 2069 
L 1759 2144 
Q 1053 2284 737 2584 
Q 422 2884 422 3419 
Q 422 4038 858 4394 
Q 1294 4750 2059 4750 
Q 2388 4750 2728 4690 
Q 3069 4631 3425 4513 
z
" transform="scale(0.015625)"/>
      <path id="DejaVuSans-74" d="M 1172 4494 
L 1172 3500 
L 2356 3500 
L 2356 3053 
L 1172 3053 
L 1172 1153 
Q 1172 725 1289 603 
Q 1406 481 1766 481 
L 2356 481 
L 2356 0 
L 1766 0 
Q 1100 0 847 248 
Q 594 497 594 1153 
L 594 3053 
L 172 3053 
L 172 3500 
L 594 3500 
L 594 4494 
L 1172 4494 
z
" transform="scale(0.015625)"/>
      <path id="DejaVuSans-33" d="M 2597 2516 
Q 3050 2419 3304 2112 
Q 3559 1806 3559 1356 
Q 3559 666 3084 287 
Q 2609 -91 1734 -91 
Q 1441 -91 1130 -33 
Q 819 25 488 141 
L 488 750 
Q 750 597 1062 519 
Q 1375 441 1716 441 
Q 2309 441 2620 675 
Q 2931 909 2931 1356 
Q 2931 1769 2642 2001 
Q 2353 2234 1838 2234 
L 1294 2234 
L 1294 2753 
L 1863 2753 
Q 2328 2753 2575 2939 
Q 2822 3125 2822 3475 
Q 2822 3834 2567 4026 
Q 2313 4219 1838 4219 
Q 1578 4219 1281 4162 
Q 984 4106 628 3988 
L 628 4550 
Q 988 4650 1302 4700 
Q 1616 4750 1894 4750 
Q 2613 4750 3031 4423 
Q 3450 4097 3450 3541 
Q 3450 3153 3228 2886 
Q 3006 2619 2597 2516 
z
" transform="scale(0.015625)"/>
      <path id="DejaVuSans-52" d="M 2841 2188 
Q 3044 2119 3236 1894 
Q 3428 1669 3622 1275 
L 4263 0 
L 3584 0 
L 2988 1197 
Q 2756 1666 2539 1819 
Q 2322 1972 1947 1972 
L 1259 1972 
L 1259 0 
L 628 0 
L 628 4666 
L 2053 4666 
Q 2853 4666 3247 4331 
Q 3641 3997 3641 3322 
Q 3641 2881 3436 2590 
Q 3231 2300 2841 2188 
z
M 1259 4147 
L 1259 2491 
L 2053 2491 
Q 2509 2491 2742 2702 
Q 2975 2913 2975 3322 
Q 2975 3731 2742 3939 
Q 2509 4147 2053 4147 
L 1259 4147 
z
" transform="scale(0.015625)"/>
      <path id="DejaVuSans-2d" d="M 313 2009 
L 1997 2009 
L 1997 1497 
L 313 1497 
L 313 2009 
z
" transform="scale(0.015625)"/>
      <path id="DejaVuSans-4c" d="M 628 4666 
L 1259 4666 
L 1259 531 
L 3531 531 
L 3531 0 
L 628 0 
L 628 4666 
z
" transform="scale(0.015625)"/>
     </defs>
     <use xlink:href="#DejaVuSans-4d"/>
     <use xlink:href="#DejaVuSans-41" transform="translate(86.279297 0)"/>
     <use xlink:href="#DejaVuSans-53" transform="translate(154.6875 0)"/>
     <use xlink:href="#DejaVuSans-74" transform="translate(218.164062 0)"/>
     <use xlink:href="#DejaVuSans-33" transform="translate(257.373047 0)"/>
     <use xlink:href="#DejaVuSans-52" transform="translate(320.996094 0)"/>
     <use xlink:href="#DejaVuSans-2d" transform="translate(386.478516 0)"/>
     <use xlink:href="#DejaVuSans-53" transform="translate(422.5625 0)"/>
     <use xlink:href="#DejaVuSans-4c" transform="translate(486.039062 0)"/>
     <use xlink:href="#DejaVuSans-41" transform="translate(544.001953 0)"/>
     <use xlink:href="#DejaVuSans-4d" transform="translate(612.410156 0)"/>
    </g>
   </g>
  </g>
  <g id="axes_2">
   <g id="patch_7">
    <path d="M 401.717647 384.48 
L 631.482353 384.48 
L 631.482353 51.84 
L 401.717647 51.84 
z
" style="fill: #ffffff"/>
   </g>
   <g id="matplotlib.axis_3">
    <g id="xtick_7">
     <g id="line2d_16">
      <g>
       <use xlink:href="#m186b393b78" x="439.391562" y="384.48" style="stroke: #000000; stroke-width: 0.8"/>
      </g>
     </g>
     <g id="text_16">
      <!-- −200 -->
      <g transform="translate(425.657968 399.078438) scale(0.1 -0.1)">
       <use xlink:href="#DejaVuSans-2212"/>
       <use xlink:href="#DejaVuSans-32" transform="translate(83.789062 0)"/>
       <use xlink:href="#DejaVuSans-30" transform="translate(147.412109 0)"/>
       <use xlink:href="#DejaVuSans-30" transform="translate(211.035156 0)"/>
      </g>
     </g>
    </g>
    <g id="xtick_8">
     <g id="line2d_17">
      <g>
       <use xlink:href="#m186b393b78" x="483.510669" y="384.48" style="stroke: #000000; stroke-width: 0.8"/>
      </g>
     </g>
     <g id="text_17">
      <!-- 0 -->
      <g transform="translate(480.329419 399.078438) scale(0.1 -0.1)">
       <use xlink:href="#DejaVuSans-30"/>
      </g>
     </g>
    </g>
    <g id="xtick_9">
     <g id="line2d_18">
      <g>
       <use xlink:href="#m186b393b78" x="527.629777" y="384.48" style="stroke: #000000; stroke-width: 0.8"/>
      </g>
     </g>
     <g id="text_18">
      <!-- 200 -->
      <g transform="translate(518.086027 399.078438) scale(0.1 -0.1)">
       <use xlink:href="#DejaVuSans-32"/>
       <use xlink:href="#DejaVuSans-30" transform="translate(63.623047 0)"/>
       <use xlink:href="#DejaVuSans-30" transform="translate(127.246094 0)"/>
      </g>
     </g>
    </g>
    <g id="xtick_10">
     <g id="line2d_19">
      <g>
       <use xlink:href="#m186b393b78" x="571.748885" y="384.48" style="stroke: #000000; stroke-width: 0.8"/>
      </g>
     </g>
     <g id="text_19">
      <!-- 400 -->
      <g transform="translate(562.205135 399.078438) scale(0.1 -0.1)">
       <use xlink:href="#DejaVuSans-34"/>
       <use xlink:href="#DejaVuSans-30" transform="translate(63.623047 0)"/>
       <use xlink:href="#DejaVuSans-30" transform="translate(127.246094 0)"/>
      </g>
     </g>
    </g>
    <g id="xtick_11">
     <g id="line2d_20">
      <g>
       <use xlink:href="#m186b393b78" x="615.867992" y="384.48" style="stroke: #000000; stroke-width: 0.8"/>
      </g>
     </g>
     <g id="text_20">
      <!-- 600 -->
      <g transform="translate(606.324242 399.078438) scale(0.1 -0.1)">
       <use xlink:href="#DejaVuSans-36"/>
       <use xlink:href="#DejaVuSans-30" transform="translate(63.623047 0)"/>
       <use xlink:href="#DejaVuSans-30" transform="translate(127.246094 0)"/>
      </g>
     </g>
    </g>
   </g>
   <g id="matplotlib.axis_4">
    <g id="ytick_9">
     <g id="line2d_21">
      <g>
       <use xlink:href="#m0275d32bdd" x="401.717647" y="370.731232" style="stroke: #000000; stroke-width: 0.8"/>
      </g>
     </g>
     <g id="text_21">
      <!-- 0 -->
      <g transform="translate(388.355147 374.53045) scale(0.1 -0.1)">
       <use xlink:href="#DejaVuSans-30"/>
      </g>
     </g>
    </g>
    <g id="ytick_10">
     <g id="line2d_22">
      <g>
       <use xlink:href="#m0275d32bdd" x="401.717647" y="326.612124" style="stroke: #000000; stroke-width: 0.8"/>
      </g>
     </g>
     <g id="text_22">
      <!-- 200 -->
      <g transform="translate(375.630147 330.411343) scale(0.1 -0.1)">
       <use xlink:href="#DejaVuSans-32"/>
       <use xlink:href="#DejaVuSans-30" transform="translate(63.623047 0)"/>
       <use xlink:href="#DejaVuSans-30" transform="translate(127.246094 0)"/>
      </g>
     </g>
    </g>
    <g id="ytick_11">
     <g id="line2d_23">
      <g>
       <use xlink:href="#m0275d32bdd" x="401.717647" y="282.493016" style="stroke: #000000; stroke-width: 0.8"/>
      </g>
     </g>
     <g id="text_23">
      <!-- 400 -->
      <g transform="translate(375.630147 286.292235) scale(0.1 -0.1)">
       <use xlink:href="#DejaVuSans-34"/>
       <use xlink:href="#DejaVuSans-30" transform="translate(63.623047 0)"/>
       <use xlink:href="#DejaVuSans-30" transform="translate(127.246094 0)"/>
      </g>
     </g>
    </g>
    <g id="ytick_12">
     <g id="line2d_24">
      <g>
       <use xlink:href="#m0275d32bdd" x="401.717647" y="238.373909" style="stroke: #000000; stroke-width: 0.8"/>
      </g>
     </g>
     <g id="text_24">
      <!-- 600 -->
      <g transform="translate(375.630147 242.173127) scale(0.1 -0.1)">
       <use xlink:href="#DejaVuSans-36"/>
       <use xlink:href="#DejaVuSans-30" transform="translate(63.623047 0)"/>
       <use xlink:href="#DejaVuSans-30" transform="translate(127.246094 0)"/>
      </g>
     </g>
    </g>
    <g id="ytick_13">
     <g id="line2d_25">
      <g>
       <use xlink:href="#m0275d32bdd" x="401.717647" y="194.254801" style="stroke: #000000; stroke-width: 0.8"/>
      </g>
     </g>
     <g id="text_25">
      <!-- 800 -->
      <g transform="translate(375.630147 198.05402) scale(0.1 -0.1)">
       <use xlink:href="#DejaVuSans-38"/>
       <use xlink:href="#DejaVuSans-30" transform="translate(63.623047 0)"/>
       <use xlink:href="#DejaVuSans-30" transform="translate(127.246094 0)"/>
      </g>
     </g>
    </g>
    <g id="ytick_14">
     <g id="line2d_26">
      <g>
       <use xlink:href="#m0275d32bdd" x="401.717647" y="150.135693" style="stroke: #000000; stroke-width: 0.8"/>
      </g>
     </g>
     <g id="text_26">
      <!-- 1000 -->
      <g transform="translate(369.267647 153.934912) scale(0.1 -0.1)">
       <use xlink:href="#DejaVuSans-31"/>
       <use xlink:href="#DejaVuSans-30" transform="translate(63.623047 0)"/>
       <use xlink:href="#DejaVuSans-30" transform="translate(127.246094 0)"/>
       <use xlink:href="#DejaVuSans-30" transform="translate(190.869141 0)"/>
      </g>
     </g>
    </g>
    <g id="ytick_15">
     <g id="line2d_27">
      <g>
       <use xlink:href="#m0275d32bdd" x="401.717647" y="106.016585" style="stroke: #000000; stroke-width: 0.8"/>
      </g>
     </g>
     <g id="text_27">
      <!-- 1200 -->
      <g transform="translate(369.267647 109.815804) scale(0.1 -0.1)">
       <use xlink:href="#DejaVuSans-31"/>
       <use xlink:href="#DejaVuSans-32" transform="translate(63.623047 0)"/>
       <use xlink:href="#DejaVuSans-30" transform="translate(127.246094 0)"/>
       <use xlink:href="#DejaVuSans-30" transform="translate(190.869141 0)"/>
      </g>
     </g>
    </g>
    <g id="ytick_16">
     <g id="line2d_28">
      <g>
       <use xlink:href="#m0275d32bdd" x="401.717647" y="61.897478" style="stroke: #000000; stroke-width: 0.8"/>
      </g>
     </g>
     <g id="text_28">
      <!-- 1400 -->
      <g transform="translate(369.267647 65.696697) scale(0.1 -0.1)">
       <use xlink:href="#DejaVuSans-31"/>
       <use xlink:href="#DejaVuSans-34" transform="translate(63.623047 0)"/>
       <use xlink:href="#DejaVuSans-30" transform="translate(127.246094 0)"/>
       <use xlink:href="#DejaVuSans-30" transform="translate(190.869141 0)"/>
      </g>
     </g>
    </g>
   </g>
   <g id="line2d_29">
    <path d="M 483.542458 369.36 
L 483.638273 364.910804 
L 483.39405 364.540544 
L 483.050946 359.304761 
L 482.541045 355.217456 
L 481.860385 351.337036 
L 480.668763 346.45502 
L 480.028989 343.222748 
L 479.797769 339.090141 
L 479.37783 337.561615 
L 478.711617 336.551425 
L 477.808213 335.59639 
L 475.402036 333.7751 
L 473.30128 332.512765 
L 469.883831 330.515954 
L 468.735334 329.753497 
L 467.653705 328.901429 
L 465.67545 326.904123 
L 464.756154 325.789048 
L 463.969506 324.579165 
L 463.295124 323.257955 
L 462.180874 320.388291 
L 459.608763 313.504866 
L 457.336301 308.367288 
L 456.205781 305.356295 
L 456.287764 303.893072 
L 456.641604 303.48054 
L 457.166258 303.228802 
L 458.11895 303.220306 
L 459.223525 303.751471 
L 465.195978 308.229127 
L 467.897052 310.077173 
L 470.425106 311.413019 
L 473.254606 312.423471 
L 476.317644 313.103717 
L 488.315962 315.188082 
L 490.442451 315.71856 
L 492.934014 316.496535 
L 494.015891 316.929977 
L 495.929568 317.271174 
L 496.924939 316.801267 
L 497.357496 315.83801 
L 497.292397 314.83024 
L 496.823244 312.975202 
L 495.684272 309.950415 
L 494.236971 306.156809 
L 492.207582 300.737502 
L 490.529901 296.727945 
L 488.02394 291.560854 
L 486.56091 288.803073 
L 485.667919 287.41156 
L 484.218651 286.002833 
L 482.489366 285.089598 
L 481.084233 284.869696 
L 477.997226 284.859363 
L 469.489539 285.110966 
L 467.959224 284.976561 
L 466.249888 284.618254 
L 464.535974 284.007766 
L 462.022736 282.621147 
L 461.525642 282.771285 
L 461.073998 283.271415 
L 460.995353 283.875454 
L 461.343529 284.36103 
L 461.939091 284.540735 
L 463.123062 284.436563 
L 466.043292 284.777743 
L 467.642645 285.097091 
L 469.291963 285.310389 
L 472.401354 285.293956 
L 476.960244 285.086623 
L 480.458099 284.917931 
L 482.060803 284.384828 
L 482.609929 283.311983 
L 482.512189 282.044992 
L 481.912777 280.581164 
L 479.349849 276.735229 
L 475.163064 270.100095 
L 470.148424 261.805143 
L 468.886399 260.839526 
L 467.779583 260.752588 
L 466.449707 261.062753 
L 455.708349 264.983521 
L 449.410324 267.030224 
L 447.969239 267.372743 
L 446.282368 267.554057 
L 444.75299 267.460953 
L 443.638726 267.84369 
L 443.467867 268.448187 
L 443.653449 268.870198 
L 444.199374 269.186699 
L 444.797963 269.074509 
L 446.478042 267.767214 
L 447.804601 267.256723 
L 455.183467 265.099023 
L 460.151503 263.588891 
L 466.738447 261.219455 
L 468.169119 260.325514 
L 468.658298 259.216114 
L 468.518576 257.940278 
L 467.824864 256.454099 
L 464.727073 251.412029 
L 461.988097 246.951189 
L 460.915807 245.702032 
L 459.827912 245.523175 
L 455.591753 247.303329 
L 453.088748 248.132568 
L 448.912361 249.32041 
L 445.810115 250.456254 
L 438.146726 253.622993 
L 436.582742 254.000189 
L 435.093102 254.626188 
L 434.756726 255.372044 
L 434.919503 255.937024 
L 434.758921 255.384458 
L 434.923946 255.013577 
L 435.62794 254.706205 
L 437.929032 253.507807 
L 440.694488 252.470023 
L 446.347935 250.473609 
L 453.77297 247.669848 
L 456.712537 246.699276 
L 458.509514 245.774577 
L 458.930491 244.709177 
L 458.737971 243.445546 
L 458.068325 242.29302 
L 455.973679 239.60975 
L 453.8146 237.483529 
L 451.593757 235.309308 
L 450.517906 234.117131 
L 449.611969 232.928791 
L 447.881895 230.177177 
L 446.259281 227.269581 
L 445.007033 226.160491 
L 443.724034 225.849861 
L 442.312493 226.25995 
L 441.381021 227.0745 
L 437.955015 231.186969 
L 434.954762 234.375641 
L 433.722395 235.501993 
L 432.36773 236.500449 
L 430.829943 237.355149 
L 429.559257 237.867969 
L 428.243055 238.209122 
L 426.872825 238.406128 
L 425.457292 238.470985 
L 422.642882 238.14996 
L 418.565271 236.91661 
L 413.177476 235.099901 
L 410.919644 233.919128 
L 409.969672 233.202085 
L 408.620598 231.805886 
L 407.990479 230.483983 
L 407.808215 229.044995 
L 408.04412 227.171226 
L 408.586742 225.66722 
L 409.472302 224.262405 
L 410.678516 223.082318 
L 413.260328 221.368489 
L 415.608268 220.12084 
L 420.073793 218.029383 
L 421.574385 217.546493 
L 423.299727 217.116639 
L 424.792423 216.867257 
L 426.164015 216.324884 
L 426.180017 215.77423 
L 425.906279 215.286587 
L 425.317468 215.07613 
L 424.727566 215.290277 
L 422.589685 216.841972 
L 420.639143 217.912084 
L 416.079357 220.080824 
L 411.85939 222.266678 
L 410.398941 223.26749 
L 409.274064 224.489019 
L 408.489909 225.955971 
L 408.030575 227.630553 
L 407.955539 229.467795 
L 408.488481 231.215796 
L 409.364522 232.332265 
L 410.461407 233.326278 
L 411.686181 234.232787 
L 413.041253 235.018659 
L 415.331326 235.916161 
L 421.808331 237.811877 
L 423.63398 238.236494 
L 425.445417 238.463822 
L 427.304312 238.446763 
L 429.07701 238.162374 
L 430.737525 237.605756 
L 431.936344 237.004827 
L 433.362049 235.944045 
L 435.491178 233.66121 
L 441.335344 226.94857 
L 443.939382 224.910728 
L 444.576651 223.681672 
L 445.063879 221.833538 
L 445.633601 220.226438 
L 449.48407 211.648713 
L 450.76407 208.112278 
L 452.626217 203.017159 
L 460.630217 182.290684 
L 462.804776 177.396315 
L 464.804497 173.351691 
L 467.143863 169.157615 
L 475.289167 155.662417 
L 476.635556 152.692442 
L 477.459091 149.93559 
L 478.153907 147.334181 
L 478.693258 145.812322 
L 480.139913 142.622223 
L 480.153456 141.175184 
L 479.428923 139.879724 
L 477.469066 137.394066 
L 475.560796 134.919798 
L 472.446756 130.594542 
L 471.314153 129.324044 
L 470.011062 128.123156 
L 468.789049 127.291076 
L 466.00346 125.880821 
L 464.870757 125.485515 
L 460.952636 124.610996 
L 455.163079 123.679712 
L 450.06831 123.089205 
L 448.353383 122.849463 
L 445.639189 122.219532 
L 445.071096 122.487575 
L 444.89887 122.874829 
L 444.95695 123.254759 
L 445.331006 123.724898 
L 445.866399 123.804874 
L 447.773169 122.895941 
L 449.138235 122.776272 
L 451.837844 123.05514 
L 458.466002 124.095402 
L 463.363584 125.050194 
L 464.923255 125.458641 
L 466.490935 126.019635 
L 468.037038 126.717452 
L 469.695694 127.710509 
L 471.30613 129.10221 
L 472.03443 130.572353 
L 471.887719 131.872311 
L 470.644289 134.849893 
L 468.215483 140.826599 
L 466.599385 144.863805 
L 465.691097 146.419256 
L 463.484951 147.79402 
L 463.492976 148.297375 
L 463.844146 148.740141 
L 463.981047 148.402462 
L 464.464226 148.220777 
L 464.973883 147.681393 
L 468.416718 139.804029 
L 469.575996 136.577765 
L 470.395362 134.697345 
L 471.531444 133.371052 
L 472.90161 132.806153 
L 474.046084 133.021605 
L 475.026788 133.777048 
L 478.264781 137.868648 
L 479.654208 139.083458 
L 481.3441 139.93762 
L 482.82746 140.32657 
L 491.702855 141.40954 
L 500.503811 142.081721 
L 502.033182 142.180924 
L 504.329077 142.664527 
L 505.791719 143.627425 
L 506.352323 145.028228 
L 506.427434 146.761217 
L 506.178891 150.883165 
L 505.821949 156.184433 
L 505.698376 159.073744 
L 505.372039 160.994436 
L 504.767695 161.993713 
L 504.122492 162.309688 
L 502.824594 162.397353 
L 496.069432 161.623989 
L 494.403693 161.80908 
L 492.825682 162.349811 
L 491.418103 163.282455 
L 490.23255 164.558082 
L 487.712676 168.216058 
L 485.072586 171.962238 
L 483.924211 173.614348 
L 483.282634 175.392805 
L 483.722269 176.469703 
L 484.575199 177.132607 
L 486.02549 177.464456 
L 489.284601 177.486861 
L 490.913464 177.581648 
L 492.654716 177.97049 
L 494.05306 178.714516 
L 494.779586 178.596301 
L 495.130442 178.123456 
L 494.890293 178.839328 
L 494.389152 178.230913 
L 493.441736 177.94499 
L 486.420925 177.404837 
L 484.448464 176.955245 
L 482.814027 176.968049 
L 481.916754 177.704804 
L 480.397481 179.982671 
L 477.624591 183.709098 
L 475.918141 186.407502 
L 474.450584 189.122387 
L 473.861601 190.510089 
L 473.576873 192.154687 
L 473.962064 193.461901 
L 474.971126 194.298398 
L 476.353911 194.601743 
L 482.143233 194.863283 
L 485.84088 195.090853 
L 487.486744 195.091486 
L 489.370906 195.26116 
L 491.059521 195.763855 
L 492.516467 196.382772 
L 493.003534 196.136649 
L 493.3285 195.570632 
L 493.215091 195.76947 
L 492.486642 195.373653 
L 491.483795 195.201407 
L 484.3362 195.201245 
L 476.442182 194.435987 
L 474.477031 194.412438 
L 473.291482 194.886805 
L 472.396883 195.872995 
L 471.25006 198.761984 
L 469.306884 204.468412 
L 468.71758 205.997339 
L 468.182065 207.720661 
L 468.265081 209.424931 
L 469.031197 210.516034 
L 470.350274 211.137159 
L 471.733466 211.314535 
L 482.085418 211.777093 
L 488.805072 211.961336 
L 490.542412 212.519839 
L 491.472352 212.461782 
L 491.859793 211.918534 
L 491.795179 211.332307 
L 491.718447 211.516079 
L 491.145643 211.621031 
L 488.058042 211.887081 
L 484.581599 211.945152 
L 479.499674 211.714876 
L 470.553325 210.989148 
L 468.455825 210.645747 
L 467.622514 211.026228 
L 466.658594 211.945462 
L 466.031676 212.855526 
L 465.253913 214.201463 
L 463.951256 215.84878 
L 462.743921 216.351421 
L 461.542994 216.123205 
L 460.363934 215.399336 
L 459.35794 214.219034 
L 453.329412 204.762723 
L 452.470003 204.539125 
L 452.012712 204.940974 
L 452.000282 205.678456 
L 452.356285 206.225556 
L 455.155458 207.788305 
L 456.35665 209.313018 
L 466.763992 225.358287 
L 471.270728 231.993872 
L 472.51911 232.952151 
L 474.003464 233.293075 
L 475.637892 233.319748 
L 485.90697 232.728701 
L 487.866152 232.740186 
L 489.218031 232.570202 
L 490.6451 232.273157 
L 491.903388 231.71499 
L 491.983547 231.112607 
L 491.811098 231.750334 
L 489.237526 232.763816 
L 487.495026 232.948139 
L 476.270905 233.140877 
L 474.690809 233.667727 
L 473.942961 234.544292 
L 473.905697 235.434201 
L 474.364331 236.648984 
L 476.245598 239.401245 
L 480.050239 244.45783 
L 483.119103 248.134615 
L 488.890446 254.615848 
L 490.438733 256.090192 
L 493.108244 258.112847 
L 494.439117 258.810111 
L 496.23196 259.445374 
L 497.990525 259.575363 
L 499.350818 259.403191 
L 500.99469 258.739512 
L 503.431268 257.222683 
L 506.824747 254.490632 
L 509.620108 252.276746 
L 510.933348 251.264126 
L 514.134272 248.210148 
L 519.202362 243.380999 
L 529.209467 233.987458 
L 532.664398 230.078108 
L 538.125612 223.393864 
L 562.32513 193.41685 
L 565.911861 189.847724 
L 569.386881 185.580054 
L 574.48791 178.732409 
L 576.2979 176.050512 
L 578.705918 172.08025 
L 580.107684 169.48661 
L 580.926825 167.783013 
L 581.515892 166.073196 
L 581.78891 164.337096 
L 581.799082 162.996828 
L 581.627859 161.67549 
L 581.268685 160.415184 
L 580.736248 159.211307 
L 580.044214 158.075517 
L 578.887656 156.717206 
L 575.711223 153.986111 
L 572.769462 151.560341 
L 571.792879 150.57232 
L 570.866132 149.404284 
L 569.773549 147.729419 
L 569.111769 146.42992 
L 568.404783 144.756846 
L 567.097522 141.084436 
L 566.081192 140.178869 
L 565.153847 139.849888 
L 563.967351 139.769076 
L 554.687804 140.653828 
L 550.674053 141.367478 
L 549.310048 141.715013 
L 547.84603 142.40766 
L 546.752895 143.783446 
L 546.524208 145.267525 
L 547.010355 146.84635 
L 548.049904 148.378455 
L 549.253236 149.476317 
L 550.689396 150.475836 
L 553.533333 152.098783 
L 556.080341 153.509092 
L 557.296141 154.328261 
L 558.397812 155.25673 
L 559.373864 156.316179 
L 560.407488 157.865154 
L 561.141644 159.560174 
L 561.51058 160.901318 
L 561.782737 162.726159 
L 561.780259 164.527061 
L 561.608915 165.86185 
L 561.251235 167.149878 
L 560.488354 168.791311 
L 558.922885 171.16103 
L 556.957546 173.46767 
L 549.86462 181.114744 
L 544.825734 186.291307 
L 538.923083 191.946707 
L 529.722634 200.505353 
L 528.684038 201.250631 
L 527.547198 201.920752 
L 526.426913 202.367315 
L 524.641807 202.92905 
L 523.192278 203.21399 
L 521.659971 203.37972 
L 518.545812 203.343084 
L 515.867897 202.993624 
L 510.191761 201.93777 
L 505.767812 201.527116 
L 508.717984 201.689506 
L 512.024416 201.735419 
L 512.585478 202.107593 
L 512.22424 202.902149 
L 511.899473 206.037368 
L 511.720894 210.828589 
L 511.644359 216.358436 
L 511.32573 220.310104 
L 510.848431 221.9882 
L 510.441545 222.986481 
L 510.574848 223.782087 
L 511.135922 224.12701 
L 511.704927 224.01204 
L 512.031488 223.59732 
L 511.436723 224.205385 
L 511.393954 219.550649 
L 511.437492 211.787043 
L 511.721539 208.278007 
L 512.055057 204.522443 
L 511.626469 203.232167 
L 510.666094 202.408192 
L 508.958581 201.935508 
L 503.404428 201.226638 
L 502.010219 200.617253 
L 501.382513 199.78069 
L 501.182201 198.623707 
L 501.542207 193.624413 
L 502.058088 176.655682 
L 502.236321 169.478047 
L 502.437069 167.308377 
L 503.294823 165.004928 
L 504.230836 164.220888 
L 505.398438 163.849589 
L 508.391989 163.328502 
L 509.679184 162.986205 
L 510.990683 162.507193 
L 512.679108 161.670562 
L 514.966807 160.108203 
L 518.147659 157.502149 
L 519.67242 156.652525 
L 521.298278 156.396317 
L 522.780765 156.78862 
L 523.953547 157.730796 
L 524.87514 159.06611 
L 526.277024 161.976075 
L 529.123513 168.208667 
L 529.536163 169.682311 
L 529.51835 171.19014 
L 529.040941 172.549272 
L 528.202189 173.852891 
L 526.471657 175.689069 
L 524.665753 177.525247 
L 523.331234 178.557578 
L 521.78858 179.217709 
L 520.135301 179.538504 
L 518.855857 179.647752 
L 517.23842 179.513246 
L 515.587248 178.787518 
L 514.31599 177.549778 
L 513.049515 176.665134 
L 512.179348 176.769952 
L 511.586595 177.389785 
L 511.386564 178.231451 
L 511.724204 178.996615 
L 512.466102 179.413302 
L 513.492173 179.474913 
L 516.746442 179.487583 
L 520.376648 179.54937 
L 521.923079 179.153862 
L 523.401816 178.26219 
L 525.714861 176.221264 
L 528.08007 173.81608 
L 528.960059 172.679967 
L 529.513823 171.372632 
L 529.589885 170.005839 
L 529.210437 168.690762 
L 526.604292 163.148016 
L 524.141182 158.132605 
L 523.371912 156.143421 
L 523.47875 154.679808 
L 524.127537 153.674485 
L 525.435818 152.613663 
L 528.505969 150.75255 
L 533.966483 147.941909 
L 538.50777 145.736991 
L 541.147541 144.661789 
L 543.968368 143.734114 
L 548.93308 142.456561 
L 553.773943 141.520592 
L 557.25389 141.055139 
L 560.911213 140.76593 
L 566.347397 140.474567 
L 570.547417 139.807314 
L 574.195591 138.993841 
L 575.871843 138.555074 
L 578.698916 137.47617 
L 580.646274 136.764593 
L 582.772145 136.614199 
L 584.218564 137.215397 
L 585.358171 138.29624 
L 587.879072 142.358866 
L 589.021614 143.546344 
L 593.745931 147.319424 
L 595.389802 148.84473 
L 596.568643 150.16899 
L 597.647197 151.564448 
L 598.591675 153.101346 
L 599.337451 154.775335 
L 599.741831 156.12134 
L 599.986245 157.533237 
L 599.992909 158.951329 
L 599.854674 160.39107 
L 599.231785 163.162571 
L 598.371861 165.88315 
L 597.132815 168.562341 
L 595.667357 171.187972 
L 593.770658 174.19298 
L 591.346753 178.014518 
L 590.233044 180.239512 
L 584.710145 193.925523 
L 578.340361 204.757122 
L 576.733268 207.142433 
L 570.803598 215.518035 
L 567.242079 220.421802 
L 565.55882 222.85588 
L 564.10797 225.222192 
L 561.450207 228.82681 
L 557.706465 233.423623 
L 553.565028 239.047571 
L 550.956961 242.24525 
L 548.067656 245.346055 
L 544.468734 248.677702 
L 539.523759 253.015318 
L 532.841108 258.650562 
L 530.434049 260.288097 
L 529.114 261.028158 
L 526.0934 262.295949 
L 522.788439 263.373735 
L 521.090965 263.83381 
L 519.217007 264.0456 
L 517.819977 263.701034 
L 516.818684 262.727446 
L 515.022208 260.066351 
L 513.276866 257.091865 
L 510.729946 252.41066 
L 505.695442 244.378674 
L 504.194854 241.500969 
L 502.944761 238.380048 
L 501.971361 234.997278 
L 501.359567 231.461596 
L 501.1574 227.814028 
L 501.226792 221.607005 
L 501.434987 216.661149 
L 501.880465 206.571933 
L 502.49227 186.022483 
L 502.957287 177.96594 
L 503.271722 170.963135 
L 503.73843 158.694259 
L 504.020337 152.257242 
L 504.430244 145.790632 
L 505.187926 143.920053 
L 506.449581 142.94905 
L 508.913102 141.63132 
L 517.616175 138.23549 
L 520.507869 136.931871 
L 533.378139 130.164311 
L 534.682129 129.192231 
L 535.462918 127.941822 
L 535.382271 126.630528 
L 534.807998 125.283015 
L 533.811373 124.013864 
L 532.601019 122.822104 
L 531.580587 121.271446 
L 531.542379 120.072819 
L 532.054674 119.150395 
L 533.577213 117.528646 
L 535.824647 115.028689 
L 537.548541 113.160574 
L 542.312528 107.563259 
L 542.556396 106.522808 
L 542.135468 105.950746 
L 541.59053 105.841822 
L 541.00633 106.213646 
L 540.854179 106.879795 
L 541.13362 108.491688 
L 540.826416 109.435412 
L 540.10771 110.478367 
L 537.422693 113.351737 
L 532.559462 118.621552 
L 531.702925 119.987645 
L 531.723993 121.322151 
L 532.274502 122.75745 
L 533.709844 124.681225 
L 534.869882 126.079066 
L 536.197744 127.084375 
L 537.263211 127.134273 
L 538.313598 126.723349 
L 539.493021 125.981397 
L 542.059363 123.993183 
L 544.992493 121.394157 
L 547.959863 118.501561 
L 550.155101 115.915649 
L 552.254737 113.028195 
L 553.886967 110.379029 
L 555.954021 106.502423 
L 558.915069 100.409683 
L 564.766398 88.069528 
L 565.768327 86.346691 
L 566.96521 84.686166 
L 567.934665 83.590539 
L 569.35452 82.319476 
L 570.826555 81.555793 
L 572.452928 81.070278 
L 573.924795 81.009986 
L 577.345493 81.857173 
L 578.479714 81.527572 
L 579.42459 80.597501 
L 580.378399 78.504293 
L 583.288418 72.019937 
L 584.937055 69.244693 
L 585.992067 68.111421 
L 586.116334 67.361391 
L 585.81902 66.96 
L 585.947319 67.259549 
L 585.1723 68.267766 
L 584.103756 70.767023 
L 575.025073 90.087175 
L 574.554988 91.798891 
L 574.402608 93.524071 
L 574.675465 95.709184 
L 575.566033 97.658325 
L 576.712984 98.937709 
L 578.130126 99.807839 
L 579.69713 100.286703 
L 581.238821 100.387629 
L 583.011052 100.259155 
L 584.989915 100.610675 
L 586.137526 101.417362 
L 586.870329 102.608584 
L 587.206797 103.722683 
L 588.376886 110.804279 
L 588.42912 112.650635 
L 588.080555 114.411818 
L 587.276379 115.934795 
L 586.0504 117.025789 
L 584.585844 117.572323 
L 582.997662 117.759501 
L 581.352108 117.632616 
L 579.726953 117.162934 
L 576.967967 115.714307 
L 572.76545 113.130711 
L 570.817136 111.550674 
L 566.15406 106.716287 
L 561.846226 103.247912 
L 560.116906 102.152798 
L 559.068081 100.947116 
L 558.929347 99.841876 
L 559.341745 98.475353 
L 561.111599 94.813014 
L 563.558313 89.39162 
L 564.376713 87.810856 
L 565.354489 86.263079 
L 566.518223 84.783592 
L 567.51476 83.726607 
L 568.958911 82.565115 
L 570.590967 81.714023 
L 572.276784 81.325881 
L 573.846158 81.417975 
L 575.561024 82.007621 
L 576.500023 82.851065 
L 576.905218 83.967776 
L 576.83299 85.159778 
L 576.296621 86.61196 
L 575.090697 89.085716 
L 574.332945 91.254295 
L 574.029128 93.266422 
L 574.24691 95.354109 
L 574.904967 96.926821 
L 575.971955 98.327894 
L 577.395129 99.424301 
L 579.030079 100.124272 
L 580.712039 100.396031 
L 582.306214 100.307707 
L 584.223789 99.744773 
L 585.651352 98.932027 
L 586.973249 97.93792 
L 589.528826 96.364211 
L 594.271637 93.800784 
L 598.127151 91.730197 
L 599.528425 91.087152 
L 601.487544 90.331683 
L 603.535808 89.677436 
L 605.118874 89.34937 
L 606.716845 89.135076 
L 608.6536 89.189228 
L 610.375306 89.671054 
L 612.202046 90.768808 
L 613.450664 92.047034 
L 614.435118 93.634745 
L 614.88296 94.944208 
L 615.146654 96.791615 
L 615.138024 98.202247 
L 615.01103 99.617511 
L 614.578106 101.474073 
L 613.679877 103.182854 
L 612.232353 104.511947 
L 608.307533 105.98376 
L 606.99951 107.082887 
L 606.063339 108.495458 
L 605.582012 109.715169 
L 605.054812 111.966068 
L 604.058833 117.463453 
L 603.078944 120.599588 
L 601.939358 123.446837 
L 600.787586 125.66211 
L 599.63222 127.261643 
L 597.605808 129.343756 
L 595.242808 131.291659 
L 592.609913 133.100962 
L 590.020036 134.597495 
L 587.276931 135.773583 
L 584.557731 136.703978 
L 583.598685 137.462248 
L 583.633254 138.101415 
L 584.005441 138.52039 
L 584.626243 138.597863 
L 585.191634 138.220303 
L 586.05897 137.069043 
L 587.237575 136.07297 
L 593.995704 132.295487 
L 595.663681 131.102946 
L 598.043337 129.010412 
L 599.102233 127.895424 
L 600.612405 125.906941 
L 601.154415 125.025771 
L 602.482297 122.168207 
L 603.597985 119.042817 
L 604.479505 115.651537 
L 605.565007 110.680759 
L 606.281107 108.457489 
L 607.273747 106.853836 
L 608.924255 105.631109 
L 610.489818 105.277407 
L 611.846809 105.651359 
L 612.610021 106.431602 
L 612.856589 107.249626 
L 612.792728 108.741447 
L 612.840432 110.405311 
L 613.036684 111.868642 
L 613.425783 113.39765 
L 614.234409 115.362867 
L 615.130538 116.937034 
L 616.564988 118.840855 
L 618.587845 120.957382 
L 621.429561 123.638378 
L 622.36689 124.883347 
L 623.012802 126.811054 
L 622.776158 128.317685 
L 622.189702 129.255916 
L 619.840826 131.472077 
L 618.509592 133.268913 
L 618.039749 134.25163 
L 617.725659 135.624266 
L 617.763452 137.062284 
L 618.509995 139.963605 
L 619.048047 141.767577 
L 619.409315 143.566809 
L 619.458796 144.999724 
L 619.259245 146.400097 
L 618.787881 147.731695 
L 617.777428 149.632473 
L 615.744042 152.843064 
L 609.164683 164.643526 
L 608.205515 166.510509 
L 606.48288 169.088989 
L 606.735587 169.161574 
L 606.578462 168.50559 
L 606.984646 168.300694 
L 607.509261 167.804623 
L 608.440612 165.847901 
L 610.86622 161.499272 
L 613.276574 157.3269 
L 615.085958 154.084628 
L 615.767995 153.050331 
L 617.331754 150.204724 
L 618.34984 148.638891 
L 618.896913 147.515233 
L 619.428219 145.923589 
L 619.731121 144.224611 
L 619.587768 141.947942 
L 619.043173 140.190314 
L 618.578864 138.29756 
L 618.464245 136.329676 
L 618.464245 136.329676 
" clip-path="url(#pa70e5db3ca)" style="fill: none; stroke: #ff0000; stroke-width: 0.5; stroke-linecap: square"/>
   </g>
   <g id="patch_8">
    <path d="M 401.717647 384.48 
L 401.717647 51.84 
" style="fill: none; stroke: #000000; stroke-width: 0.8; stroke-linejoin: miter; stroke-linecap: square"/>
   </g>
   <g id="patch_9">
    <path d="M 631.482353 384.48 
L 631.482353 51.84 
" style="fill: none; stroke: #000000; stroke-width: 0.8; stroke-linejoin: miter; stroke-linecap: square"/>
   </g>
   <g id="patch_10">
    <path d="M 401.717647 384.48 
L 631.482353 384.48 
" style="fill: none; stroke: #000000; stroke-width: 0.8; stroke-linejoin: miter; stroke-linecap: square"/>
   </g>
   <g id="patch_11">
    <path d="M 401.717647 51.84 
L 631.482353 51.84 
" style="fill: none; stroke: #000000; stroke-width: 0.8; stroke-linejoin: miter; stroke-linecap: square"/>
   </g>
   <g id="text_29">
    <!-- MASt3R-Fusion (w/o loop closure) -->
    <g transform="translate(416.6475 45.84) scale(0.12 -0.12)">
     <defs>
      <path id="DejaVuSans-46" d="M 628 4666 
L 3309 4666 
L 3309 4134 
L 1259 4134 
L 1259 2759 
L 3109 2759 
L 3109 2228 
L 1259 2228 
L 1259 0 
L 628 0 
L 628 4666 
z
" transform="scale(0.015625)"/>
      <path id="DejaVuSans-75" d="M 544 1381 
L 544 3500 
L 1119 3500 
L 1119 1403 
Q 1119 906 1312 657 
Q 1506 409 1894 409 
Q 2359 409 2629 706 
Q 2900 1003 2900 1516 
L 2900 3500 
L 3475 3500 
L 3475 0 
L 2900 0 
L 2900 538 
Q 2691 219 2414 64 
Q 2138 -91 1772 -91 
Q 1169 -91 856 284 
Q 544 659 544 1381 
z
M 1991 3584 
L 1991 3584 
z
" transform="scale(0.015625)"/>
      <path id="DejaVuSans-73" d="M 2834 3397 
L 2834 2853 
Q 2591 2978 2328 3040 
Q 2066 3103 1784 3103 
Q 1356 3103 1142 2972 
Q 928 2841 928 2578 
Q 928 2378 1081 2264 
Q 1234 2150 1697 2047 
L 1894 2003 
Q 2506 1872 2764 1633 
Q 3022 1394 3022 966 
Q 3022 478 2636 193 
Q 2250 -91 1575 -91 
Q 1294 -91 989 -36 
Q 684 19 347 128 
L 347 722 
Q 666 556 975 473 
Q 1284 391 1588 391 
Q 1994 391 2212 530 
Q 2431 669 2431 922 
Q 2431 1156 2273 1281 
Q 2116 1406 1581 1522 
L 1381 1569 
Q 847 1681 609 1914 
Q 372 2147 372 2553 
Q 372 3047 722 3315 
Q 1072 3584 1716 3584 
Q 2034 3584 2315 3537 
Q 2597 3491 2834 3397 
z
" transform="scale(0.015625)"/>
      <path id="DejaVuSans-69" d="M 603 3500 
L 1178 3500 
L 1178 0 
L 603 0 
L 603 3500 
z
M 603 4863 
L 1178 4863 
L 1178 4134 
L 603 4134 
L 603 4863 
z
" transform="scale(0.015625)"/>
      <path id="DejaVuSans-6f" d="M 1959 3097 
Q 1497 3097 1228 2736 
Q 959 2375 959 1747 
Q 959 1119 1226 758 
Q 1494 397 1959 397 
Q 2419 397 2687 759 
Q 2956 1122 2956 1747 
Q 2956 2369 2687 2733 
Q 2419 3097 1959 3097 
z
M 1959 3584 
Q 2709 3584 3137 3096 
Q 3566 2609 3566 1747 
Q 3566 888 3137 398 
Q 2709 -91 1959 -91 
Q 1206 -91 779 398 
Q 353 888 353 1747 
Q 353 2609 779 3096 
Q 1206 3584 1959 3584 
z
" transform="scale(0.015625)"/>
      <path id="DejaVuSans-6e" d="M 3513 2113 
L 3513 0 
L 2938 0 
L 2938 2094 
Q 2938 2591 2744 2837 
Q 2550 3084 2163 3084 
Q 1697 3084 1428 2787 
Q 1159 2491 1159 1978 
L 1159 0 
L 581 0 
L 581 3500 
L 1159 3500 
L 1159 2956 
Q 1366 3272 1645 3428 
Q 1925 3584 2291 3584 
Q 2894 3584 3203 3211 
Q 3513 2838 3513 2113 
z
" transform="scale(0.015625)"/>
      <path id="DejaVuSans-20" transform="scale(0.015625)"/>
      <path id="DejaVuSans-28" d="M 1984 4856 
Q 1566 4138 1362 3434 
Q 1159 2731 1159 2009 
Q 1159 1288 1364 580 
Q 1569 -128 1984 -844 
L 1484 -844 
Q 1016 -109 783 600 
Q 550 1309 550 2009 
Q 550 2706 781 3412 
Q 1013 4119 1484 4856 
L 1984 4856 
z
" transform="scale(0.015625)"/>
      <path id="DejaVuSans-77" d="M 269 3500 
L 844 3500 
L 1563 769 
L 2278 3500 
L 2956 3500 
L 3675 769 
L 4391 3500 
L 4966 3500 
L 4050 0 
L 3372 0 
L 2619 2869 
L 1863 0 
L 1184 0 
L 269 3500 
z
" transform="scale(0.015625)"/>
      <path id="DejaVuSans-2f" d="M 1625 4666 
L 2156 4666 
L 531 -594 
L 0 -594 
L 1625 4666 
z
" transform="scale(0.015625)"/>
      <path id="DejaVuSans-6c" d="M 603 4863 
L 1178 4863 
L 1178 0 
L 603 0 
L 603 4863 
z
" transform="scale(0.015625)"/>
      <path id="DejaVuSans-70" d="M 1159 525 
L 1159 -1331 
L 581 -1331 
L 581 3500 
L 1159 3500 
L 1159 2969 
Q 1341 3281 1617 3432 
Q 1894 3584 2278 3584 
Q 2916 3584 3314 3078 
Q 3713 2572 3713 1747 
Q 3713 922 3314 415 
Q 2916 -91 2278 -91 
Q 1894 -91 1617 61 
Q 1341 213 1159 525 
z
M 3116 1747 
Q 3116 2381 2855 2742 
Q 2594 3103 2138 3103 
Q 1681 3103 1420 2742 
Q 1159 2381 1159 1747 
Q 1159 1113 1420 752 
Q 1681 391 2138 391 
Q 2594 391 2855 752 
Q 3116 1113 3116 1747 
z
" transform="scale(0.015625)"/>
      <path id="DejaVuSans-63" d="M 3122 3366 
L 3122 2828 
Q 2878 2963 2633 3030 
Q 2388 3097 2138 3097 
Q 1578 3097 1268 2742 
Q 959 2388 959 1747 
Q 959 1106 1268 751 
Q 1578 397 2138 397 
Q 2388 397 2633 464 
Q 2878 531 3122 666 
L 3122 134 
Q 2881 22 2623 -34 
Q 2366 -91 2075 -91 
Q 1284 -91 818 406 
Q 353 903 353 1747 
Q 353 2603 823 3093 
Q 1294 3584 2113 3584 
Q 2378 3584 2631 3529 
Q 2884 3475 3122 3366 
z
" transform="scale(0.015625)"/>
      <path id="DejaVuSans-72" d="M 2631 2963 
Q 2534 3019 2420 3045 
Q 2306 3072 2169 3072 
Q 1681 3072 1420 2755 
Q 1159 2438 1159 1844 
L 1159 0 
L 581 0 
L 581 3500 
L 1159 3500 
L 1159 2956 
Q 1341 3275 1631 3429 
Q 1922 3584 2338 3584 
Q 2397 3584 2469 3576 
Q 2541 3569 2628 3553 
L 2631 2963 
z
" transform="scale(0.015625)"/>
      <path id="DejaVuSans-65" d="M 3597 1894 
L 3597 1613 
L 953 1613 
Q 991 1019 1311 708 
Q 1631 397 2203 397 
Q 2534 397 2845 478 
Q 3156 559 3463 722 
L 3463 178 
Q 3153 47 2828 -22 
Q 2503 -91 2169 -91 
Q 1331 -91 842 396 
Q 353 884 353 1716 
Q 353 2575 817 3079 
Q 1281 3584 2069 3584 
Q 2775 3584 3186 3129 
Q 3597 2675 3597 1894 
z
M 3022 2063 
Q 3016 2534 2758 2815 
Q 2500 3097 2075 3097 
Q 1594 3097 1305 2825 
Q 1016 2553 972 2059 
L 3022 2063 
z
" transform="scale(0.015625)"/>
      <path id="DejaVuSans-29" d="M 513 4856 
L 1013 4856 
Q 1481 4119 1714 3412 
Q 1947 2706 1947 2009 
Q 1947 1309 1714 600 
Q 1481 -109 1013 -844 
L 513 -844 
Q 928 -128 1133 580 
Q 1338 1288 1338 2009 
Q 1338 2731 1133 3434 
Q 928 4138 513 4856 
z
" transform="scale(0.015625)"/>
     </defs>
     <use xlink:href="#DejaVuSans-4d"/>
     <use xlink:href="#DejaVuSans-41" transform="translate(86.279297 0)"/>
     <use xlink:href="#DejaVuSans-53" transform="translate(154.6875 0)"/>
     <use xlink:href="#DejaVuSans-74" transform="translate(218.164062 0)"/>
     <use xlink:href="#DejaVuSans-33" transform="translate(257.373047 0)"/>
     <use xlink:href="#DejaVuSans-52" transform="translate(320.996094 0)"/>
     <use xlink:href="#DejaVuSans-2d" transform="translate(386.478516 0)"/>
     <use xlink:href="#DejaVuSans-46" transform="translate(422.5625 0)"/>
     <use xlink:href="#DejaVuSans-75" transform="translate(474.582031 0)"/>
     <use xlink:href="#DejaVuSans-73" transform="translate(537.960938 0)"/>
     <use xlink:href="#DejaVuSans-69" transform="translate(590.060547 0)"/>
     <use xlink:href="#DejaVuSans-6f" transform="translate(617.84375 0)"/>
     <use xlink:href="#DejaVuSans-6e" transform="translate(679.025391 0)"/>
     <use xlink:href="#DejaVuSans-20" transform="translate(742.404297 0)"/>
     <use xlink:href="#DejaVuSans-28" transform="translate(774.191406 0)"/>
     <use xlink:href="#DejaVuSans-77" transform="translate(813.205078 0)"/>
     <use xlink:href="#DejaVuSans-2f" transform="translate(894.992188 0)"/>
     <use xlink:href="#DejaVuSans-6f" transform="translate(928.683594 0)"/>
     <use xlink:href="#DejaVuSans-20" transform="translate(989.865234 0)"/>
     <use xlink:href="#DejaVuSans-6c" transform="translate(1021.652344 0)"/>
     <use xlink:href="#DejaVuSans-6f" transform="translate(1049.435547 0)"/>
     <use xlink:href="#DejaVuSans-6f" transform="translate(1110.617188 0)"/>
     <use xlink:href="#DejaVuSans-70" transform="translate(1171.798828 0)"/>
     <use xlink:href="#DejaVuSans-20" transform="translate(1235.275391 0)"/>
     <use xlink:href="#DejaVuSans-63" transform="translate(1267.0625 0)"/>
     <use xlink:href="#DejaVuSans-6c" transform="translate(1322.042969 0)"/>
     <use xlink:href="#DejaVuSans-6f" transform="translate(1349.826172 0)"/>
     <use xlink:href="#DejaVuSans-73" transform="translate(1411.007812 0)"/>
     <use xlink:href="#DejaVuSans-75" transform="translate(1463.107422 0)"/>
     <use xlink:href="#DejaVuSans-72" transform="translate(1526.486328 0)"/>
     <use xlink:href="#DejaVuSans-65" transform="translate(1565.349609 0)"/>
     <use xlink:href="#DejaVuSans-29" transform="translate(1626.873047 0)"/>
    </g>
   </g>
  </g>
  <g id="axes_3">
   <g id="patch_12">
    <path d="M 677.435294 384.48 
L 907.2 384.48 
L 907.2 51.84 
L 677.435294 51.84 
z
" style="fill: #ffffff"/>
   </g>
   <g id="matplotlib.axis_5">
    <g id="xtick_12">
     <g id="line2d_30">
      <g>
       <use xlink:href="#m186b393b78" x="715.432815" y="384.48" style="stroke: #000000; stroke-width: 0.8"/>
      </g>
     </g>
     <g id="text_30">
      <!-- −200 -->
      <g transform="translate(701.699222 399.078438) scale(0.1 -0.1)">
       <use xlink:href="#DejaVuSans-2212"/>
       <use xlink:href="#DejaVuSans-32" transform="translate(83.789062 0)"/>
       <use xlink:href="#DejaVuSans-30" transform="translate(147.412109 0)"/>
       <use xlink:href="#DejaVuSans-30" transform="translate(211.035156 0)"/>
      </g>
     </g>
    </g>
    <g id="xtick_13">
     <g id="line2d_31">
      <g>
       <use xlink:href="#m186b393b78" x="759.367005" y="384.48" style="stroke: #000000; stroke-width: 0.8"/>
      </g>
     </g>
     <g id="text_31">
      <!-- 0 -->
      <g transform="translate(756.185755 399.078438) scale(0.1 -0.1)">
       <use xlink:href="#DejaVuSans-30"/>
      </g>
     </g>
    </g>
    <g id="xtick_14">
     <g id="line2d_32">
      <g>
       <use xlink:href="#m186b393b78" x="803.301194" y="384.48" style="stroke: #000000; stroke-width: 0.8"/>
      </g>
     </g>
     <g id="text_32">
      <!-- 200 -->
      <g transform="translate(793.757444 399.078438) scale(0.1 -0.1)">
       <use xlink:href="#DejaVuSans-32"/>
       <use xlink:href="#DejaVuSans-30" transform="translate(63.623047 0)"/>
       <use xlink:href="#DejaVuSans-30" transform="translate(127.246094 0)"/>
      </g>
     </g>
    </g>
    <g id="xtick_15">
     <g id="line2d_33">
      <g>
       <use xlink:href="#m186b393b78" x="847.235384" y="384.48" style="stroke: #000000; stroke-width: 0.8"/>
      </g>
     </g>
     <g id="text_33">
      <!-- 400 -->
      <g transform="translate(837.691634 399.078438) scale(0.1 -0.1)">
       <use xlink:href="#DejaVuSans-34"/>
       <use xlink:href="#DejaVuSans-30" transform="translate(63.623047 0)"/>
       <use xlink:href="#DejaVuSans-30" transform="translate(127.246094 0)"/>
      </g>
     </g>
    </g>
    <g id="xtick_16">
     <g id="line2d_34">
      <g>
       <use xlink:href="#m186b393b78" x="891.169574" y="384.48" style="stroke: #000000; stroke-width: 0.8"/>
      </g>
     </g>
     <g id="text_34">
      <!-- 600 -->
      <g transform="translate(881.625824 399.078438) scale(0.1 -0.1)">
       <use xlink:href="#DejaVuSans-36"/>
       <use xlink:href="#DejaVuSans-30" transform="translate(63.623047 0)"/>
       <use xlink:href="#DejaVuSans-30" transform="translate(127.246094 0)"/>
      </g>
     </g>
    </g>
   </g>
   <g id="matplotlib.axis_6">
    <g id="ytick_17">
     <g id="line2d_35">
      <g>
       <use xlink:href="#m0275d32bdd" x="677.435294" y="369.740986" style="stroke: #000000; stroke-width: 0.8"/>
      </g>
     </g>
     <g id="text_35">
      <!-- 0 -->
      <g transform="translate(664.072794 373.540205) scale(0.1 -0.1)">
       <use xlink:href="#DejaVuSans-30"/>
      </g>
     </g>
    </g>
    <g id="ytick_18">
     <g id="line2d_36">
      <g>
       <use xlink:href="#m0275d32bdd" x="677.435294" y="325.806797" style="stroke: #000000; stroke-width: 0.8"/>
      </g>
     </g>
     <g id="text_36">
      <!-- 200 -->
      <g transform="translate(651.347794 329.606015) scale(0.1 -0.1)">
       <use xlink:href="#DejaVuSans-32"/>
       <use xlink:href="#DejaVuSans-30" transform="translate(63.623047 0)"/>
       <use xlink:href="#DejaVuSans-30" transform="translate(127.246094 0)"/>
      </g>
     </g>
    </g>
    <g id="ytick_19">
     <g id="line2d_37">
      <g>
       <use xlink:href="#m0275d32bdd" x="677.435294" y="281.872607" style="stroke: #000000; stroke-width: 0.8"/>
      </g>
     </g>
     <g id="text_37">
      <!-- 400 -->
      <g transform="translate(651.347794 285.671826) scale(0.1 -0.1)">
       <use xlink:href="#DejaVuSans-34"/>
       <use xlink:href="#DejaVuSans-30" transform="translate(63.623047 0)"/>
       <use xlink:href="#DejaVuSans-30" transform="translate(127.246094 0)"/>
      </g>
     </g>
    </g>
    <g id="ytick_20">
     <g id="line2d_38">
      <g>
       <use xlink:href="#m0275d32bdd" x="677.435294" y="237.938418" style="stroke: #000000; stroke-width: 0.8"/>
      </g>
     </g>
     <g id="text_38">
      <!-- 600 -->
      <g transform="translate(651.347794 241.737636) scale(0.1 -0.1)">
       <use xlink:href="#DejaVuSans-36"/>
       <use xlink:href="#DejaVuSans-30" transform="translate(63.623047 0)"/>
       <use xlink:href="#DejaVuSans-30" transform="translate(127.246094 0)"/>
      </g>
     </g>
    </g>
    <g id="ytick_21">
     <g id="line2d_39">
      <g>
       <use xlink:href="#m0275d32bdd" x="677.435294" y="194.004228" style="stroke: #000000; stroke-width: 0.8"/>
      </g>
     </g>
     <g id="text_39">
      <!-- 800 -->
      <g transform="translate(651.347794 197.803447) scale(0.1 -0.1)">
       <use xlink:href="#DejaVuSans-38"/>
       <use xlink:href="#DejaVuSans-30" transform="translate(63.623047 0)"/>
       <use xlink:href="#DejaVuSans-30" transform="translate(127.246094 0)"/>
      </g>
     </g>
    </g>
    <g id="ytick_22">
     <g id="line2d_40">
      <g>
       <use xlink:href="#m0275d32bdd" x="677.435294" y="150.070038" style="stroke: #000000; stroke-width: 0.8"/>
      </g>
     </g>
     <g id="text_40">
      <!-- 1000 -->
      <g transform="translate(644.985294 153.869257) scale(0.1 -0.1)">
       <use xlink:href="#DejaVuSans-31"/>
       <use xlink:href="#DejaVuSans-30" transform="translate(63.623047 0)"/>
       <use xlink:href="#DejaVuSans-30" transform="translate(127.246094 0)"/>
       <use xlink:href="#DejaVuSans-30" transform="translate(190.869141 0)"/>
      </g>
     </g>
    </g>
    <g id="ytick_23">
     <g id="line2d_41">
      <g>
       <use xlink:href="#m0275d32bdd" x="677.435294" y="106.135849" style="stroke: #000000; stroke-width: 0.8"/>
      </g>
     </g>
     <g id="text_41">
      <!-- 1200 -->
      <g transform="translate(644.985294 109.935068) scale(0.1 -0.1)">
       <use xlink:href="#DejaVuSans-31"/>
       <use xlink:href="#DejaVuSans-32" transform="translate(63.623047 0)"/>
       <use xlink:href="#DejaVuSans-30" transform="translate(127.246094 0)"/>
       <use xlink:href="#DejaVuSans-30" transform="translate(190.869141 0)"/>
      </g>
     </g>
    </g>
    <g id="ytick_24">
     <g id="line2d_42">
      <g>
       <use xlink:href="#m0275d32bdd" x="677.435294" y="62.201659" style="stroke: #000000; stroke-width: 0.8"/>
      </g>
     </g>
     <g id="text_42">
      <!-- 1400 -->
      <g transform="translate(644.985294 66.000878) scale(0.1 -0.1)">
       <use xlink:href="#DejaVuSans-31"/>
       <use xlink:href="#DejaVuSans-34" transform="translate(63.623047 0)"/>
       <use xlink:href="#DejaVuSans-30" transform="translate(127.246094 0)"/>
       <use xlink:href="#DejaVuSans-30" transform="translate(190.869141 0)"/>
      </g>
     </g>
    </g>
   </g>
   <g id="line2d_43">
    <path d="M 759.360118 369.36 
L 759.251368 363.092381 
L 758.877567 357.656422 
L 758.359794 353.529266 
L 757.641516 349.364305 
L 756.68692 345.259606 
L 755.834804 341.519906 
L 755.675145 337.628666 
L 755.245903 336.216072 
L 754.580417 335.195827 
L 753.691217 334.378019 
L 751.312317 332.724189 
L 748.141642 330.874948 
L 744.746561 328.78468 
L 743.646996 327.946368 
L 741.645464 325.967664 
L 740.731369 324.866166 
L 739.932327 323.657161 
L 739.252428 322.342764 
L 738.129286 319.47085 
L 735.609405 312.650091 
L 733.357275 307.562586 
L 732.276698 304.613326 
L 732.410144 303.241907 
L 732.744342 302.7437 
L 733.262305 302.464494 
L 734.103444 302.495801 
L 735.188691 303.020632 
L 739.975027 306.626098 
L 743.732013 309.235288 
L 746.275908 310.586403 
L 749.107478 311.593289 
L 752.16792 312.266881 
L 765.284558 314.602702 
L 767.837798 315.326553 
L 769.852872 316.098061 
L 771.621935 316.380011 
L 772.525121 315.894694 
L 772.956041 314.927391 
L 772.863144 313.918488 
L 772.347873 312.05433 
L 771.229078 309.056858 
L 769.79529 305.279862 
L 767.737533 299.818917 
L 766.027085 295.787854 
L 764.153793 291.879889 
L 762.038412 287.855563 
L 761.139618 286.444282 
L 759.724489 285.103317 
L 758.068532 284.325741 
L 756.633866 284.082121 
L 753.525601 284.093489 
L 745.055265 284.481674 
L 743.534744 284.360297 
L 741.857528 284.01776 
L 740.190366 283.41634 
L 737.740073 282.054453 
L 737.20696 282.195554 
L 736.776499 282.679125 
L 736.696636 283.279477 
L 737.045864 283.755306 
L 737.643736 283.915635 
L 738.810255 283.814217 
L 740.390673 283.928536 
L 744.959301 284.6572 
L 748.073967 284.643392 
L 754.076707 284.358806 
L 756.073926 284.266192 
L 757.628103 283.737756 
L 758.157664 282.685992 
L 758.073103 281.426743 
L 757.478256 279.976836 
L 748.843374 266.184525 
L 745.822551 261.144283 
L 744.669349 260.309606 
L 743.517564 260.185226 
L 742.167317 260.495116 
L 732.970494 263.935774 
L 726.255333 266.188864 
L 723.631126 266.894647 
L 722.032427 267.036734 
L 720.551856 266.929405 
L 719.44838 267.305333 
L 719.276705 267.910447 
L 719.452455 268.348653 
L 719.990838 268.679601 
L 720.569572 268.560176 
L 722.169117 267.25288 
L 723.459179 266.759839 
L 729.090437 265.098731 
L 734.465067 263.55629 
L 740.532565 261.473482 
L 742.423088 260.786951 
L 743.824516 259.895702 
L 744.275035 258.818596 
L 744.138417 257.556661 
L 743.457229 256.079605 
L 739.777279 249.868061 
L 737.697509 246.420357 
L 736.663492 245.23371 
L 735.62885 245.118648 
L 733.572664 245.991276 
L 731.376219 246.862989 
L 728.873009 247.672668 
L 724.714561 248.83865 
L 721.636048 249.953204 
L 714.027571 253.047533 
L 712.424031 253.444098 
L 710.990875 254.039433 
L 710.610269 254.798912 
L 710.762519 255.365188 
L 710.602589 254.833653 
L 710.761297 254.513586 
L 713.670154 253.014364 
L 716.415015 251.991069 
L 722.009779 250.031176 
L 729.323927 247.286572 
L 732.190361 246.344445 
L 733.932742 245.445084 
L 734.496671 244.33924 
L 734.292148 243.108303 
L 733.628382 241.963949 
L 731.579315 239.288517 
L 729.463038 237.176906 
L 727.238556 234.965035 
L 726.177339 233.791089 
L 725.279803 232.6056 
L 723.564208 229.859766 
L 721.954866 226.965649 
L 720.71381 225.859099 
L 719.443429 225.557436 
L 718.046746 225.973973 
L 717.111938 226.792197 
L 713.710468 230.907976 
L 710.699908 234.092302 
L 709.472455 235.21177 
L 708.117358 236.213515 
L 706.595848 237.056177 
L 705.353343 237.54352 
L 704.044964 237.884765 
L 702.688364 238.079602 
L 701.307207 238.119563 
L 699.927952 238.001584 
L 697.233912 237.40932 
L 689.198691 234.843671 
L 688.07422 234.311319 
L 687.04732 233.69749 
L 686.109492 233.004281 
L 684.76562 231.647727 
L 684.061153 230.312486 
L 683.797798 228.849249 
L 684.012317 226.981189 
L 684.542355 225.482532 
L 685.420246 224.090236 
L 686.620192 222.909041 
L 689.17735 221.209581 
L 691.484596 219.983599 
L 695.886696 217.877344 
L 697.357525 217.405895 
L 701.776593 216.237619 
L 701.860668 215.656218 
L 701.582564 215.17281 
L 700.995021 214.969593 
L 700.399146 215.19642 
L 698.308628 216.730809 
L 696.383304 217.788195 
L 690.586728 220.6039 
L 687.747602 222.080115 
L 686.31258 223.062609 
L 685.173968 224.288987 
L 684.355314 225.773702 
L 683.884023 227.451463 
L 683.833589 229.248191 
L 684.370381 230.987433 
L 685.239823 232.11565 
L 686.334483 233.090205 
L 687.557479 233.983519 
L 688.908796 234.759384 
L 691.18455 235.643465 
L 697.659452 237.565559 
L 699.490611 237.994928 
L 701.284453 238.207638 
L 703.073612 238.149991 
L 704.802679 237.847015 
L 706.468958 237.299417 
L 707.642343 236.696864 
L 709.051502 235.642803 
L 711.138567 233.378629 
L 716.903255 226.712503 
L 719.445 224.713884 
L 720.047632 223.503203 
L 720.533608 221.644255 
L 721.102698 220.055318 
L 723.94959 213.910671 
L 725.671612 209.444161 
L 728.077545 202.734 
L 736.205836 181.540865 
L 738.386455 176.611014 
L 740.367208 172.583571 
L 742.633964 168.544611 
L 749.923838 156.515984 
L 751.302067 153.787545 
L 752.328387 150.956929 
L 753.912534 145.502352 
L 755.376803 142.206519 
L 755.318039 140.913591 
L 754.58327 139.628342 
L 751.528157 135.877571 
L 747.536244 130.356429 
L 746.393131 129.074083 
L 745.123826 127.921843 
L 743.91749 127.108735 
L 742.575782 126.374669 
L 741.159218 125.732042 
L 740.0443 125.352092 
L 737.337844 124.723723 
L 731.652308 123.750605 
L 723.990286 122.871616 
L 721.321113 122.301074 
L 720.423601 122.526014 
L 720.233557 122.929374 
L 720.260658 123.346198 
L 720.654387 123.798871 
L 721.167949 123.881639 
L 722.954584 122.9172 
L 724.19905 122.79326 
L 726.955275 123.061107 
L 733.514557 124.040031 
L 738.38578 124.941468 
L 739.929885 125.330666 
L 741.472752 125.86806 
L 742.981615 126.536024 
L 744.629204 127.497583 
L 746.178849 128.837473 
L 746.919808 130.278512 
L 746.817393 131.603741 
L 741.599498 144.872529 
L 740.700758 146.378989 
L 738.630799 147.567428 
L 738.644621 148.070894 
L 738.987903 148.516699 
L 739.132613 148.253615 
L 739.605903 148.061589 
L 740.098328 147.507465 
L 743.451713 139.702457 
L 744.562435 136.514028 
L 745.356517 134.63911 
L 746.473394 133.30563 
L 747.795825 132.807289 
L 748.91632 133.048005 
L 749.919744 133.789203 
L 753.211355 137.910832 
L 754.630029 139.125575 
L 756.326153 139.958883 
L 757.804173 140.314698 
L 765.629892 141.23312 
L 770.73247 141.616426 
L 777.761404 142.056159 
L 779.633352 142.557022 
L 780.717499 143.517922 
L 781.285515 144.907883 
L 781.382939 146.641757 
L 781.033339 152.048808 
L 780.753175 157.382203 
L 780.705423 158.978539 
L 780.382608 160.863285 
L 779.790696 161.663843 
L 779.148281 162.03126 
L 777.854103 162.17845 
L 771.113335 161.4578 
L 769.482428 161.6499 
L 767.909942 162.19667 
L 766.481013 163.125799 
L 765.296901 164.393913 
L 758.990491 173.33217 
L 758.31211 175.115912 
L 758.676702 176.275965 
L 759.514158 176.966837 
L 760.973362 177.303975 
L 764.25706 177.315448 
L 765.884642 177.423265 
L 767.592487 177.82106 
L 769.070932 178.596321 
L 769.706251 178.4573 
L 770.034428 177.978868 
L 769.82906 178.677311 
L 769.346127 178.114438 
L 768.413074 177.83278 
L 763.165162 177.380666 
L 761.455397 177.23761 
L 759.474371 176.773759 
L 757.910846 176.795107 
L 756.954943 177.526939 
L 754.524504 181.011568 
L 752.646871 183.524353 
L 750.910897 186.22613 
L 749.40149 188.958962 
L 748.776053 190.395687 
L 748.526085 191.949846 
L 748.948757 193.147669 
L 749.963836 193.961757 
L 751.345501 194.25335 
L 757.114734 194.554592 
L 760.822197 194.823726 
L 762.463322 194.836768 
L 764.357764 195.017933 
L 765.953041 195.520843 
L 767.363708 196.133006 
L 767.980555 195.914614 
L 768.312469 195.348353 
L 768.217424 195.542929 
L 767.531888 195.156499 
L 766.539529 194.987642 
L 763.835268 195.040154 
L 760.968962 195.048126 
L 757.927787 194.756814 
L 753.143591 194.268918 
L 749.595101 194.088085 
L 748.359715 194.554253 
L 747.507271 195.534412 
L 746.800823 197.105657 
L 743.211435 207.378968 
L 743.30168 208.991017 
L 744.072534 210.054589 
L 745.390322 210.678096 
L 746.776547 210.873639 
L 757.233793 211.429788 
L 764.060097 211.672536 
L 765.630606 212.250932 
L 766.55262 212.207204 
L 766.968303 211.673261 
L 766.91288 211.094544 
L 766.859186 211.283015 
L 764.619386 211.500369 
L 761.601313 211.621803 
L 757.975545 211.543473 
L 749.249574 210.899197 
L 747.929413 210.792881 
L 744.087873 210.18101 
L 742.95239 210.494836 
L 742.037087 211.393295 
L 741.416125 212.285038 
L 740.6468 213.604693 
L 739.405376 215.16082 
L 738.218764 215.592171 
L 736.986129 215.388762 
L 735.815424 214.638395 
L 734.817404 213.437144 
L 728.660066 203.701861 
L 727.921335 203.702777 
L 727.482797 204.140248 
L 727.459202 204.870686 
L 727.816657 205.411501 
L 730.544749 206.964238 
L 731.739036 208.466195 
L 745.959911 230.919441 
L 747.233093 231.995143 
L 748.792724 232.483711 
L 750.415972 232.556679 
L 759.937424 232.202141 
L 762.63572 232.22444 
L 765.490557 231.789865 
L 766.698527 231.28898 
L 766.789365 230.684705 
L 766.609765 231.331541 
L 765.143507 232.01114 
L 763.372542 232.335725 
L 760.892297 232.375178 
L 756.172952 232.294974 
L 751.336463 232.329098 
L 749.587224 232.82709 
L 748.874657 233.681779 
L 748.838901 234.555836 
L 749.263281 235.773031 
L 751.058692 238.544872 
L 754.712342 243.671998 
L 757.674603 247.413063 
L 763.265956 254.060293 
L 764.75436 255.555173 
L 765.96243 256.594138 
L 767.248541 257.529826 
L 768.546922 258.269515 
L 770.260164 258.906699 
L 771.993076 259.0752 
L 773.284548 258.890934 
L 774.943617 258.281131 
L 777.415343 256.847363 
L 780.844218 254.222025 
L 786.215322 250.086933 
L 792.411376 244.450778 
L 799.218078 238.601384 
L 801.59001 236.527537 
L 804.621861 233.542672 
L 808.5394 229.284953 
L 815.659675 221.011339 
L 835.031499 198.332952 
L 838.073689 194.947374 
L 840.224647 192.987485 
L 840.968365 192.342143 
L 842.376034 190.917498 
L 845.754894 186.962504 
L 851.084052 180.268608 
L 853.857573 176.352866 
L 856.249168 172.520119 
L 857.847413 169.579215 
L 858.506628 167.870977 
L 858.855525 166.123402 
L 858.903635 164.809159 
L 858.771164 163.509733 
L 858.460385 162.24623 
L 857.974504 161.041684 
L 857.325688 159.90879 
L 856.220569 158.534676 
L 853.153223 155.752058 
L 850.336835 153.235211 
L 849.374272 152.161921 
L 848.503186 150.989675 
L 847.48167 149.295591 
L 846.853374 147.963893 
L 846.206408 146.277624 
L 844.981468 142.530158 
L 844.067118 141.691358 
L 843.14834 141.333281 
L 841.943249 141.198614 
L 834.722558 141.513723 
L 831.208754 141.889123 
L 828.417681 142.313191 
L 827.032629 142.617119 
L 825.630876 143.248469 
L 824.572925 144.568399 
L 824.30666 146.033681 
L 824.705191 147.647725 
L 825.684853 149.218304 
L 826.849063 150.355013 
L 828.247974 151.403505 
L 831.025737 153.114454 
L 833.508417 154.601039 
L 834.687077 155.454843 
L 835.748324 156.413096 
L 836.660712 157.477391 
L 837.627998 159.045567 
L 838.295899 160.747518 
L 838.608961 162.079873 
L 838.802359 163.876942 
L 838.740478 165.646708 
L 838.520627 166.941969 
L 838.128545 168.192707 
L 837.332514 169.779006 
L 835.725279 172.033434 
L 833.743774 174.203673 
L 824.994904 183.186833 
L 820.280151 187.627385 
L 811.179719 195.688961 
L 806.580341 199.666073 
L 805.390353 200.516643 
L 804.130485 201.256368 
L 802.798051 201.864235 
L 800.918129 202.456652 
L 799.442088 202.724391 
L 797.926481 202.838368 
L 794.820075 202.721635 
L 792.17892 202.28749 
L 787.973975 201.371653 
L 783.55516 200.741677 
L 782.083555 200.573369 
L 785.007411 200.819433 
L 788.27454 200.986179 
L 788.754259 201.344884 
L 788.390262 202.134375 
L 787.977722 205.273708 
L 787.664285 210.105845 
L 787.436146 215.70607 
L 787.021049 219.617173 
L 786.046793 222.205272 
L 786.181706 222.8823 
L 786.722088 223.242611 
L 787.285689 223.14354 
L 787.627134 222.743 
L 787.093567 223.267902 
L 787.143072 217.221598 
L 787.34201 210.98068 
L 787.698281 207.509106 
L 788.119579 203.866647 
L 787.728284 202.3771 
L 786.789522 201.550468 
L 785.100204 201.047614 
L 779.61722 200.223506 
L 778.280423 199.600066 
L 777.681725 198.761479 
L 777.505615 197.612308 
L 778.067043 191.291733 
L 778.669847 179.994707 
L 779.246149 167.880814 
L 779.495364 165.696751 
L 780.233539 164.313984 
L 781.177993 163.59877 
L 782.381427 163.229031 
L 785.38807 162.749114 
L 786.677055 162.42482 
L 787.989145 161.971498 
L 789.673132 161.174794 
L 792.000097 159.649432 
L 795.188797 157.126238 
L 796.708437 156.311731 
L 798.274785 156.099424 
L 799.71196 156.530981 
L 800.850174 157.499189 
L 801.748018 158.843648 
L 803.098853 161.747335 
L 805.822553 167.971962 
L 806.199474 169.430045 
L 806.145988 170.895648 
L 805.662187 172.253562 
L 804.813447 173.540357 
L 803.08073 175.371053 
L 801.271261 177.144171 
L 799.94288 178.137859 
L 798.414373 178.75969 
L 796.765219 179.063844 
L 795.509903 179.142032 
L 793.924707 178.974977 
L 792.281972 178.243751 
L 791.011163 177.001389 
L 789.825091 176.102252 
L 788.921464 176.188279 
L 788.296131 176.783429 
L 788.077504 177.604843 
L 788.390056 178.356355 
L 789.103984 178.788977 
L 791.709101 178.879668 
L 796.874947 179.086703 
L 798.394662 178.725545 
L 799.825835 177.874752 
L 802.133931 175.913899 
L 804.502893 173.601693 
L 805.374809 172.511926 
L 805.925091 171.264647 
L 806.040362 169.91295 
L 805.708491 168.592515 
L 801.788017 159.894185 
L 800.921763 158.041818 
L 800.182196 156.041791 
L 800.357654 154.658949 
L 801.01406 153.663677 
L 802.308912 152.600936 
L 805.417898 150.801756 
L 810.991244 148.029027 
L 815.679648 145.845107 
L 818.389898 144.783016 
L 821.228732 143.889317 
L 826.304723 142.661322 
L 831.300763 141.764216 
L 834.907525 141.342059 
L 838.708149 141.099569 
L 844.390841 140.879149 
L 848.019954 140.372175 
L 851.45577 139.639708 
L 853.076428 139.22725 
L 855.914673 138.192345 
L 857.854067 137.506745 
L 859.712061 137.517882 
L 861.127254 138.136337 
L 862.22536 139.238767 
L 864.63262 143.304099 
L 865.755312 144.510331 
L 870.404274 148.363219 
L 872.009944 149.904218 
L 873.160205 151.247787 
L 874.219834 152.676834 
L 875.13862 154.23253 
L 875.859084 155.919012 
L 876.236661 157.263337 
L 876.450177 158.661604 
L 876.441201 160.081307 
L 876.265829 161.479376 
L 875.585756 164.189549 
L 874.672914 166.867026 
L 873.405034 169.495237 
L 871.119121 173.328407 
L 867.564726 178.670581 
L 866.437186 180.838867 
L 860.787856 194.242305 
L 859.026117 197.035314 
L 856.553507 201.127663 
L 853.489932 206.060286 
L 850.048334 210.664472 
L 840.489379 223.981556 
L 838.812113 226.380138 
L 836.035379 229.811153 
L 834.127254 232.016188 
L 827.250584 240.812761 
L 825.359319 242.920667 
L 822.214501 246.045387 
L 815.974238 251.497686 
L 808.691212 257.564442 
L 806.430871 259.155808 
L 804.040936 260.497769 
L 800.994663 261.716901 
L 797.62486 262.770116 
L 795.881288 263.224048 
L 794.019647 263.405354 
L 792.701419 263.016363 
L 791.664699 262.010017 
L 788.249611 256.225051 
L 785.736828 251.482184 
L 780.735951 243.253756 
L 779.273966 240.354288 
L 778.071931 237.219999 
L 777.171636 233.856468 
L 776.609525 230.295264 
L 776.447915 226.602395 
L 776.615917 220.349198 
L 776.905369 215.393722 
L 777.438286 206.566711 
L 778.003939 191.674453 
L 778.263664 186.273726 
L 779.10721 173.226676 
L 780.72265 144.441539 
L 781.501906 142.97801 
L 782.770713 142.011618 
L 785.261188 140.851852 
L 792.732996 137.907649 
L 795.731114 136.714238 
L 798.219518 135.479547 
L 801.955846 133.471093 
L 808.586047 130.168213 
L 809.86324 129.426103 
L 811.07853 128.49208 
L 811.705625 127.315037 
L 811.693158 125.989094 
L 811.113449 124.681518 
L 810.092766 123.484276 
L 808.908267 122.326984 
L 807.961966 120.767522 
L 807.928168 119.535884 
L 808.43092 118.616311 
L 813.951771 112.626695 
L 818.83356 106.994209 
L 818.888289 106.155272 
L 818.479288 105.589747 
L 817.947474 105.48318 
L 817.378866 105.840765 
L 817.248472 106.477885 
L 817.513911 108.003153 
L 817.201205 108.948579 
L 816.466632 109.983544 
L 813.095145 113.571348 
L 809.036364 117.957081 
L 808.154973 119.329868 
L 808.130706 120.72205 
L 808.67937 122.153962 
L 810.112545 124.087091 
L 811.277704 125.502341 
L 812.585519 126.528421 
L 813.58248 126.486159 
L 814.626642 126.086224 
L 815.803806 125.363484 
L 818.344358 123.396672 
L 821.242753 120.839322 
L 824.174877 117.997063 
L 826.343495 115.457955 
L 828.400771 112.625717 
L 830.008705 110.021329 
L 832.032428 106.207123 
L 834.973554 100.157926 
L 840.789259 87.891689 
L 841.752837 86.236249 
L 842.865685 84.70561 
L 843.796363 83.666215 
L 845.153224 82.49587 
L 846.634162 81.707761 
L 848.19101 81.291748 
L 849.651945 81.243941 
L 853.101771 81.933545 
L 854.285152 81.553358 
L 855.242019 80.602923 
L 856.222588 78.529908 
L 857.494268 75.811902 
L 859.953264 70.620619 
L 860.896468 69.069403 
L 861.974665 67.968167 
L 861.99013 67.352462 
L 861.680449 66.96 
L 861.809484 67.187449 
L 861.063767 68.169787 
L 860.01383 70.636097 
L 851.722211 88.396297 
L 851.187537 89.741846 
L 850.69382 91.519396 
L 850.53587 93.279611 
L 850.834827 95.434906 
L 851.72883 97.375723 
L 852.876235 98.617887 
L 854.291641 99.453924 
L 855.84565 99.89275 
L 857.370582 99.975836 
L 859.110716 99.830787 
L 861.077461 100.172149 
L 862.195193 100.942101 
L 862.990404 102.138231 
L 863.356334 103.246589 
L 864.515195 108.919934 
L 864.686951 110.298923 
L 864.775426 112.142287 
L 864.448804 113.901986 
L 863.65008 115.396625 
L 862.461983 116.462642 
L 861.032745 117.056373 
L 859.472192 117.294937 
L 857.842114 117.210289 
L 856.208639 116.777979 
L 853.423493 115.383798 
L 849.277037 112.890146 
L 847.358876 111.361764 
L 842.695831 106.639332 
L 838.491696 103.341116 
L 836.76791 102.271411 
L 835.728873 101.109393 
L 835.567098 99.981824 
L 835.965307 98.589772 
L 837.735029 94.882818 
L 840.147081 89.338793 
L 840.96342 87.707908 
L 841.933823 86.126596 
L 843.082079 84.642395 
L 844.051963 83.609226 
L 845.480479 82.450077 
L 847.039642 81.684447 
L 848.644806 81.377685 
L 850.19737 81.459543 
L 851.90185 82.01724 
L 852.828349 82.842669 
L 853.252268 83.931 
L 853.210183 85.106617 
L 852.702585 86.551002 
L 851.512929 88.995874 
L 850.796898 91.135234 
L 850.526551 93.131757 
L 850.768615 95.211006 
L 851.433274 96.793689 
L 852.504774 98.176301 
L 853.926155 99.255416 
L 855.551083 99.923513 
L 857.214827 100.162449 
L 858.781087 100.054707 
L 860.655366 99.480687 
L 862.046529 98.66681 
L 863.335725 97.67359 
L 865.854911 96.110196 
L 874.479041 91.401348 
L 875.870687 90.746805 
L 877.820533 89.973864 
L 879.866862 89.288581 
L 881.478651 88.894001 
L 883.062037 88.673344 
L 884.990085 88.704851 
L 886.672714 89.182715 
L 888.472823 90.26086 
L 889.715602 91.508967 
L 890.679969 93.064127 
L 891.155361 94.363999 
L 891.432412 96.183536 
L 891.439448 97.593509 
L 891.321335 99.02483 
L 890.914419 100.865352 
L 890.03731 102.538636 
L 888.591425 103.811763 
L 884.735745 105.351711 
L 883.454117 106.439124 
L 882.552576 107.860373 
L 882.09578 109.077559 
L 881.606423 111.327936 
L 880.647366 116.832655 
L 879.708442 119.953742 
L 878.614929 122.828668 
L 877.494508 124.993108 
L 876.361105 126.570438 
L 874.3607 128.703858 
L 872.019161 130.68069 
L 869.401294 132.515926 
L 866.81209 134.034611 
L 864.07662 135.247067 
L 861.422285 136.189416 
L 860.638662 136.880217 
L 860.679026 137.523172 
L 861.084682 137.927026 
L 861.709593 137.982917 
L 862.261758 137.582437 
L 863.129381 136.408414 
L 864.25032 135.460763 
L 870.819591 131.665604 
L 873.623568 129.466755 
L 875.772852 127.281137 
L 877.234033 125.30429 
L 877.740564 124.440166 
L 879.007197 121.61311 
L 880.063852 118.526635 
L 880.869948 115.197596 
L 881.854251 110.285218 
L 882.549244 108.027154 
L 883.533618 106.34911 
L 885.161742 105.072362 
L 886.719117 104.662338 
L 888.056006 105.040077 
L 888.828193 105.800831 
L 889.082236 106.605193 
L 889.11714 109.747048 
L 889.338267 111.196562 
L 889.762416 112.72107 
L 890.611693 114.68852 
L 891.538827 116.259604 
L 893.014471 118.154925 
L 895.087429 120.258171 
L 897.997261 122.922841 
L 898.949818 124.127396 
L 899.51935 125.863176 
L 899.293686 127.348515 
L 898.719141 128.311499 
L 896.409429 130.572886 
L 895.146253 132.365779 
L 894.704347 133.360526 
L 894.412038 134.761803 
L 894.482871 136.206568 
L 895.302531 139.089026 
L 895.88809 140.879689 
L 896.305023 142.666914 
L 896.373849 144.094826 
L 896.193804 145.491832 
L 895.741965 146.810754 
L 894.763267 148.723662 
L 892.813059 151.983605 
L 890.135547 157.217272 
L 884.860334 167.03871 
L 884.271873 168.117487 
L 884.359447 168.407042 
L 884.120344 167.855459 
L 884.519815 167.649773 
L 884.991765 167.126631 
L 885.851935 165.181521 
L 888.112637 160.822861 
L 890.35941 156.629894 
L 892.091965 153.285397 
L 892.75225 152.203729 
L 893.756234 150.122799 
L 893.756234 150.122799 
" clip-path="url(#pc2c064d889)" style="fill: none; stroke: #ff0000; stroke-width: 0.5; stroke-linecap: square"/>
   </g>
   <g id="patch_13">
    <path d="M 677.435294 384.48 
L 677.435294 51.84 
" style="fill: none; stroke: #000000; stroke-width: 0.8; stroke-linejoin: miter; stroke-linecap: square"/>
   </g>
   <g id="patch_14">
    <path d="M 907.2 384.48 
L 907.2 51.84 
" style="fill: none; stroke: #000000; stroke-width: 0.8; stroke-linejoin: miter; stroke-linecap: square"/>
   </g>
   <g id="patch_15">
    <path d="M 677.435294 384.48 
L 907.2 384.48 
" style="fill: none; stroke: #000000; stroke-width: 0.8; stroke-linejoin: miter; stroke-linecap: square"/>
   </g>
   <g id="patch_16">
    <path d="M 677.435294 51.84 
L 907.2 51.84 
" style="fill: none; stroke: #000000; stroke-width: 0.8; stroke-linejoin: miter; stroke-linecap: square"/>
   </g>
   <g id="text_43">
    <!-- MASt3R-Fusion (w/ loop closure) -->
    <g transform="translate(696.036397 45.84) scale(0.12 -0.12)">
     <use xlink:href="#DejaVuSans-4d"/>
     <use xlink:href="#DejaVuSans-41" transform="translate(86.279297 0)"/>
     <use xlink:href="#DejaVuSans-53" transform="translate(154.6875 0)"/>
     <use xlink:href="#DejaVuSans-74" transform="translate(218.164062 0)"/>
     <use xlink:href="#DejaVuSans-33" transform="translate(257.373047 0)"/>
     <use xlink:href="#DejaVuSans-52" transform="translate(320.996094 0)"/>
     <use xlink:href="#DejaVuSans-2d" transform="translate(386.478516 0)"/>
     <use xlink:href="#DejaVuSans-46" transform="translate(422.5625 0)"/>
     <use xlink:href="#DejaVuSans-75" transform="translate(474.582031 0)"/>
     <use xlink:href="#DejaVuSans-73" transform="translate(537.960938 0)"/>
     <use xlink:href="#DejaVuSans-69" transform="translate(590.060547 0)"/>
     <use xlink:href="#DejaVuSans-6f" transform="translate(617.84375 0)"/>
     <use xlink:href="#DejaVuSans-6e" transform="translate(679.025391 0)"/>
     <use xlink:href="#DejaVuSans-20" transform="translate(742.404297 0)"/>
     <use xlink:href="#DejaVuSans-28" transform="translate(774.191406 0)"/>
     <use xlink:href="#DejaVuSans-77" transform="translate(813.205078 0)"/>
     <use xlink:href="#DejaVuSans-2f" transform="translate(894.992188 0)"/>
     <use xlink:href="#DejaVuSans-20" transform="translate(928.683594 0)"/>
     <use xlink:href="#DejaVuSans-6c" transform="translate(960.470703 0)"/>
     <use xlink:href="#DejaVuSans-6f" transform="translate(988.253906 0)"/>
     <use xlink:href="#DejaVuSans-6f" transform="translate(1049.435547 0)"/>
     <use xlink:href="#DejaVuSans-70" transform="translate(1110.617188 0)"/>
     <use xlink:href="#DejaVuSans-20" transform="translate(1174.09375 0)"/>
     <use xlink:href="#DejaVuSans-63" transform="translate(1205.880859 0)"/>
     <use xlink:href="#DejaVuSans-6c" transform="translate(1260.861328 0)"/>
     <use xlink:href="#DejaVuSans-6f" transform="translate(1288.644531 0)"/>
     <use xlink:href="#DejaVuSans-73" transform="translate(1349.826172 0)"/>
     <use xlink:href="#DejaVuSans-75" transform="translate(1401.925781 0)"/>
     <use xlink:href="#DejaVuSans-72" transform="translate(1465.304688 0)"/>
     <use xlink:href="#DejaVuSans-65" transform="translate(1504.167969 0)"/>
     <use xlink:href="#DejaVuSans-29" transform="translate(1565.691406 0)"/>
    </g>
   </g>
  </g>
 </g>
 <defs>
  <clipPath id="p5f63d95646">
   <rect x="126" y="51.84" width="229.764706" height="332.64"/>
  </clipPath>
  <clipPath id="pa70e5db3ca">
   <rect x="401.717647" y="51.84" width="229.764706" height="332.64"/>
  </clipPath>
  <clipPath id="pc2c064d889">
   <rect x="677.435294" y="51.84" width="229.764706" height="332.64"/>
  </clipPath>
 </defs>
</svg>
